<svg xmlns="http://www.w3.org/2000/svg" xmlns:xlink="http://www.w3.org/1999/xlink" width="1080" zoomAndPan="magnify" viewBox="0 0 810 809.999993" height="1080" preserveAspectRatio="xMidYMid meet" version="1.0"><defs><g/></defs><rect x="-81" width="972" fill="#ffffff" y="-80.999999" height="971.999992" fill-opacity="1"/><rect x="-81" width="972" fill="#ffffff" y="-80.999999" height="971.999992" fill-opacity="1"/><g fill="#000000" fill-opacity="1"><g transform="translate(10.78792, 489.359703)"><g><path d="M 63.25 -13.25 L 100.640625 -13.25 C 115.640625 -13.25 126.597656 -16.5 133.515625 -23 C 140.429688 -29.5 143.890625 -39.832031 143.890625 -54 C 143.890625 -68.09375 140.453125 -78.367188 133.578125 -84.828125 C 126.703125 -91.285156 115.722656 -94.515625 100.640625 -94.515625 L 63.25 -94.515625 Z M 63.25 -107.765625 L 95.015625 -107.765625 C 108.679688 -107.765625 118.660156 -110.390625 124.953125 -115.640625 C 131.242188 -120.890625 134.390625 -129.179688 134.390625 -140.515625 C 134.390625 -151.929688 131.242188 -160.242188 124.953125 -165.453125 C 118.660156 -170.660156 108.679688 -173.265625 95.015625 -173.265625 L 63.25 -173.265625 Z M 14.125 0 L 14.125 -13.25 L 37.875 -13.25 L 37.875 -173.265625 L 14.125 -173.265625 L 14.125 -186.640625 L 106.265625 -186.640625 C 125.097656 -186.640625 139.285156 -182.785156 148.828125 -175.078125 C 158.367188 -167.367188 163.140625 -155.847656 163.140625 -140.515625 C 163.140625 -129.429688 159.828125 -120.597656 153.203125 -114.015625 C 146.578125 -107.429688 136.890625 -103.390625 124.140625 -101.890625 C 139.972656 -99.890625 151.992188 -94.828125 160.203125 -86.703125 C 168.410156 -78.578125 172.515625 -67.675781 172.515625 -54 C 172.515625 -35.5 166.679688 -21.875 155.015625 -13.125 C 143.347656 -4.375 125.140625 0 100.390625 0 Z M 14.125 0 "/></g></g><g transform="translate(198.933119, 489.359703)"><g><path d="M 14.125 0 L 14.125 -13.25 L 37.875 -13.25 L 37.875 -173.265625 L 14.125 -173.265625 L 14.125 -186.640625 L 87.015625 -186.640625 L 87.015625 -173.265625 L 63.25 -173.265625 L 63.25 -15.375 L 148.515625 -15.375 L 148.515625 -46.625 L 163.890625 -46.625 L 163.890625 0 Z M 14.125 0 "/></g></g><g transform="translate(368.951372, 489.359703)"><g><path d="M 105.015625 -9.75 C 125.429688 -9.75 140.847656 -16.769531 151.265625 -30.8125 C 161.679688 -44.851562 166.890625 -65.628906 166.890625 -93.140625 C 166.890625 -120.722656 161.679688 -141.535156 151.265625 -155.578125 C 140.847656 -169.617188 125.429688 -176.640625 105.015625 -176.640625 C 84.515625 -176.640625 69.050781 -169.617188 58.625 -155.578125 C 48.207031 -141.535156 43 -120.722656 43 -93.140625 C 43 -65.628906 48.207031 -44.851562 58.625 -30.8125 C 69.050781 -16.769531 84.515625 -9.75 105.015625 -9.75 Z M 105.015625 3.625 C 92.347656 3.625 80.695312 1.539062 70.0625 -2.625 C 59.4375 -6.789062 50.082031 -12.914062 42 -21 C 32.664062 -30.332031 25.726562 -40.914062 21.1875 -52.75 C 16.644531 -64.59375 14.375 -78.054688 14.375 -93.140625 C 14.375 -108.222656 16.644531 -121.703125 21.1875 -133.578125 C 25.726562 -145.453125 32.664062 -156.054688 42 -165.390625 C 50.164062 -173.554688 59.5 -179.703125 70 -183.828125 C 80.507812 -187.953125 92.179688 -190.015625 105.015625 -190.015625 C 132.097656 -190.015625 153.972656 -181.140625 170.640625 -163.390625 C 187.316406 -145.640625 195.65625 -122.222656 195.65625 -93.140625 C 195.65625 -78.222656 193.359375 -64.78125 188.765625 -52.8125 C 184.179688 -40.851562 177.222656 -30.25 167.890625 -21 C 159.722656 -12.832031 150.390625 -6.6875 139.890625 -2.5625 C 129.390625 1.5625 117.765625 3.625 105.015625 3.625 Z M 105.015625 3.625 "/></g></g><g transform="translate(578.848907, 489.359703)"><g><path d="M 163.890625 -130.890625 C 160.972656 -146.472656 154.890625 -157.992188 145.640625 -165.453125 C 136.390625 -172.910156 123.515625 -176.640625 107.015625 -176.640625 C 85.515625 -176.640625 69.46875 -169.722656 58.875 -155.890625 C 48.289062 -142.054688 43 -121.140625 43 -93.140625 C 43 -65.710938 48.457031 -44.957031 59.375 -30.875 C 70.300781 -16.789062 86.347656 -9.75 107.515625 -9.75 C 116.929688 -9.75 125.929688 -10.914062 134.515625 -13.25 C 143.097656 -15.582031 151.265625 -19.082031 159.015625 -23.75 L 159.015625 -71.890625 L 123.890625 -71.890625 L 123.890625 -85.265625 L 184.390625 -85.265625 L 184.390625 -15.625 C 173.304688 -9.207031 161.367188 -4.394531 148.578125 -1.1875 C 135.785156 2.019531 122.097656 3.625 107.515625 3.625 C 79.347656 3.625 56.78125 -5.1875 39.8125 -22.8125 C 22.851562 -40.4375 14.375 -63.878906 14.375 -93.140625 C 14.375 -122.640625 22.875 -146.160156 39.875 -163.703125 C 56.882812 -181.242188 79.765625 -190.015625 108.515625 -190.015625 C 119.179688 -190.015625 130.203125 -188.785156 141.578125 -186.328125 C 152.953125 -183.867188 165.054688 -180.140625 177.890625 -175.140625 L 177.890625 -130.890625 Z M 163.890625 -130.890625 "/></g></g></g></svg>