<svg xmlns="http://www.w3.org/2000/svg" xmlns:xlink="http://www.w3.org/1999/xlink" width="500" zoomAndPan="magnify" viewBox="0 0 375 374.999991" height="500" preserveAspectRatio="xMidYMid meet" version="1.0"><defs><filter x="0%" y="0%" width="100%" height="100%" id="915b06ce61"><feColorMatrix values="0 0 0 0 1 0 0 0 0 1 0 0 0 0 1 0 0 0 1 0" color-interpolation-filters="sRGB"/></filter><g/><mask id="8ac0aca05e"><g filter="url(#915b06ce61)"><rect x="-37.5" width="450" fill="#000000" y="-37.499999" height="449.999989" fill-opacity="0.08"/></g></mask><clipPath id="d79a84c655"><path d="M 0.976562 0.996094 L 135.21875 0.996094 L 135.21875 150.878906 L 0.976562 150.878906 Z M 0.976562 0.996094 " clip-rule="nonzero"/></clipPath><clipPath id="768b3ee0a4"><path d="M 1.847656 55.535156 L 118.777344 55.535156 L 118.777344 150.878906 L 1.847656 150.878906 Z M 1.847656 55.535156 " clip-rule="nonzero"/></clipPath><clipPath id="4f063415a6"><rect x="0" width="136" y="0" height="152"/></clipPath></defs><g mask="url(#8ac0aca05e)"><g transform="matrix(1, 0, 0, 1, 112, 107)"><g clip-path="url(#4f063415a6)"><path fill="#000000" d="M 116.636719 67.023438 L 72.234375 34.929688 L 78.5625 26.175781 L 122.960938 58.269531 L 116.636719 67.023438 " fill-opacity="1" fill-rule="nonzero"/><path fill="#000000" d="M 81.941406 35.089844 C 79.144531 38.957031 73.742188 39.828125 69.875 37.03125 C 66.003906 34.234375 65.136719 28.832031 67.933594 24.964844 C 70.730469 21.097656 76.132812 20.226562 80 23.023438 C 83.867188 25.820312 84.734375 31.222656 81.941406 35.089844 " fill-opacity="1" fill-rule="nonzero"/><path fill="#000000" d="M 127.445312 67.984375 C 124.652344 71.851562 119.25 72.722656 115.378906 69.925781 C 111.511719 67.128906 110.640625 61.726562 113.4375 57.859375 C 116.234375 53.992188 121.636719 53.121094 125.503906 55.917969 C 129.375 58.714844 130.242188 64.117188 127.445312 67.984375 " fill-opacity="1" fill-rule="nonzero"/><g clip-path="url(#d79a84c655)"><path fill="#000000" d="M 113.539062 25.855469 L 113.402344 25.769531 C 113.210938 25.648438 113.019531 25.519531 112.835938 25.386719 C 112.65625 25.25 112.472656 25.113281 112.304688 24.964844 C 112.300781 24.960938 112.300781 24.960938 112.296875 24.957031 C 109.214844 22.28125 108.234375 17.851562 109.777344 14.175781 C 109.796875 14.121094 109.820312 14.066406 109.84375 14.011719 C 109.921875 13.835938 110.011719 13.667969 110.101562 13.496094 C 110.167969 13.371094 110.230469 13.246094 110.300781 13.125 C 110.394531 12.960938 110.5 12.800781 110.605469 12.644531 C 110.667969 12.550781 110.726562 12.457031 110.792969 12.367188 C 113.792969 8.222656 119.5625 7.179688 123.816406 10.007812 C 123.867188 10.046875 123.921875 10.078125 123.972656 10.113281 C 124.023438 10.152344 124.070312 10.191406 124.121094 10.226562 C 128.144531 13.382812 128.960938 19.1875 125.96875 23.335938 C 125.902344 23.425781 125.832031 23.511719 125.761719 23.597656 C 125.644531 23.75 125.527344 23.898438 125.402344 24.039062 C 125.308594 24.144531 125.207031 24.246094 125.109375 24.347656 C 124.976562 24.484375 124.84375 24.625 124.703125 24.75 C 124.65625 24.792969 124.613281 24.828125 124.566406 24.867188 C 121.558594 27.488281 117.046875 27.941406 113.539062 25.855469 Z M 120.808594 139.550781 C 123.945312 131.6875 127.046875 123.808594 130.097656 115.914062 C 130.1875 115.679688 130.230469 115.433594 130.253906 115.175781 C 130.355469 114.800781 130.371094 114.347656 130.285156 113.960938 C 130.289062 113.820312 130.292969 113.679688 130.300781 113.542969 C 130.25 113.542969 130.195312 113.542969 130.144531 113.542969 C 130.132812 113.523438 130.121094 113.496094 130.109375 113.476562 C 129.957031 113.210938 128.957031 113.253906 128.425781 113.425781 C 120.160156 116.15625 111.894531 118.90625 103.652344 121.707031 C 101.609375 122.402344 101.496094 123.238281 103.175781 124.527344 C 104.703125 125.699219 106.289062 126.789062 108 128.027344 C 108 128.027344 76.007812 145.789062 61.636719 119.671875 C 60.613281 117.808594 60.601562 115.542969 61.625 113.683594 C 61.632812 113.671875 112.316406 36.550781 112.316406 36.550781 C 113.441406 34.707031 114.582031 34.09375 116.914062 34.410156 C 124.164062 35.382812 131.363281 30.828125 134.011719 24.035156 C 136.835938 16.804688 134.605469 9.023438 128.402344 4.457031 C 128.328125 4.402344 128.25 4.351562 128.175781 4.296875 C 128.101562 4.242188 128.027344 4.1875 127.953125 4.132812 C 121.671875 -0.328125 113.585938 -0.00390625 107.605469 4.945312 C 101.988281 9.59375 99.917969 17.855469 103.117188 24.433594 C 104.144531 26.550781 103.378906 28.230469 102.523438 29.472656 C 102.523438 29.472656 45.191406 101.789062 45.183594 101.796875 C 43.738281 103.351562 41.582031 104.054688 39.492188 103.664062 C 10.183594 98.210938 17.015625 62.261719 17.015625 62.261719 C 18.730469 63.5 20.261719 64.664062 21.851562 65.742188 C 23.605469 66.933594 24.363281 66.566406 24.382812 64.410156 C 24.457031 55.703125 24.476562 46.992188 24.472656 38.285156 C 24.472656 37.726562 24.199219 36.765625 23.902344 36.703125 C 23.878906 36.695312 23.851562 36.695312 23.824219 36.691406 C 23.808594 36.644531 23.792969 36.59375 23.777344 36.542969 C 23.652344 36.59375 23.519531 36.640625 23.386719 36.6875 C 22.988281 36.730469 22.566406 36.882812 22.242188 37.097656 C 22.003906 37.203125 21.78125 37.320312 21.589844 37.480469 C 15.050781 42.855469 8.539062 48.269531 2.058594 53.714844 C 1.820312 53.914062 1.554688 54.210938 1.347656 54.515625 C 0.582031 55.503906 0.992188 56.207031 2.625 56.691406 C 3.394531 56.921875 4.171875 57.128906 4.964844 57.328125 C 6.210938 57.664062 7.480469 57.972656 8.78125 58.316406 C 8.785156 58.316406 8.785156 58.320312 8.785156 58.320312 C 8.300781 59.710938 7.910156 60.875 7.492188 62.023438 C 3.894531 71.875 2.152344 81.953125 3.75 92.4375 C 5.8125 105.960938 12.542969 117.128906 21.472656 127.125 C 25.089844 131.171875 28.722656 135.136719 29.304688 140.992188 C 29.332031 140.988281 29.351562 140.984375 29.378906 140.980469 C 29.378906 141.003906 29.382812 141.027344 29.386719 141.050781 C 35.128906 139.769531 40.03125 141.972656 45.011719 144.140625 C 57.304688 149.484375 70.019531 152.371094 83.507812 150.089844 C 93.964844 148.320312 102.988281 143.503906 111.214844 137 C 112.171875 136.242188 113.15625 135.503906 114.324219 134.609375 C 114.324219 134.609375 114.328125 134.609375 114.328125 134.609375 C 115.0625 135.738281 115.753906 136.84375 116.464844 137.925781 C 116.902344 138.613281 117.34375 139.289062 117.800781 139.949219 C 118.777344 141.347656 119.570312 141.515625 120.269531 140.476562 C 120.492188 140.183594 120.691406 139.839844 120.808594 139.550781 " fill-opacity="1" fill-rule="nonzero"/></g><path fill="#000000" d="M 79.550781 138.84375 C 79.496094 138.84375 79.441406 138.839844 79.386719 138.832031 C 66.636719 137.226562 62.226562 130.042969 62.042969 129.738281 C 61.675781 129.121094 61.878906 128.324219 62.496094 127.957031 C 63.109375 127.59375 63.90625 127.789062 64.273438 128.402344 C 64.335938 128.503906 68.335938 134.820312 79.710938 136.253906 C 80.425781 136.34375 80.929688 136.992188 80.839844 137.703125 C 80.757812 138.363281 80.199219 138.84375 79.550781 138.84375 " fill-opacity="1" fill-rule="nonzero"/><path fill="#000000" d="M 52.25 102.015625 C 51.972656 102.015625 51.691406 101.929688 51.457031 101.746094 C 50.890625 101.308594 50.78125 100.492188 51.21875 99.925781 L 77 66.449219 C 77.441406 65.882812 78.253906 65.777344 78.824219 66.214844 C 79.390625 66.652344 79.5 67.46875 79.0625 68.035156 L 53.28125 101.507812 C 53.023438 101.84375 52.640625 102.015625 52.25 102.015625 " fill-opacity="1" fill-rule="nonzero"/><g clip-path="url(#768b3ee0a4)"><path fill="#000000" d="M 115.054688 132.605469 C 106.828125 139.113281 97.804688 143.929688 87.34375 145.699219 C 73.859375 147.980469 61.144531 145.089844 48.851562 139.746094 C 43.871094 137.582031 38.96875 135.378906 33.226562 136.65625 C 33.222656 136.632812 33.21875 136.609375 33.21875 136.585938 C 33.191406 136.59375 33.171875 136.59375 33.144531 136.601562 C 32.5625 130.746094 28.929688 126.78125 25.3125 122.730469 C 16.382812 112.734375 9.652344 101.570312 7.589844 88.046875 C 5.988281 77.5625 7.730469 67.480469 11.332031 57.632812 C 11.550781 57.019531 11.769531 56.402344 11.992188 55.753906 L 1.871094 56.402344 C 2.085938 56.507812 2.328125 56.605469 2.625 56.691406 C 3.394531 56.921875 4.171875 57.128906 4.964844 57.328125 C 6.210938 57.664062 7.480469 57.972656 8.78125 58.316406 C 8.785156 58.316406 8.785156 58.320312 8.785156 58.320312 C 8.300781 59.710938 7.910156 60.875 7.492188 62.023438 C 3.894531 71.875 2.152344 81.953125 3.75 92.4375 C 5.8125 105.960938 12.542969 117.128906 21.472656 127.125 C 25.089844 131.171875 28.722656 135.136719 29.304688 140.992188 C 29.332031 140.988281 29.355469 140.984375 29.378906 140.980469 C 29.378906 141.003906 29.382812 141.027344 29.386719 141.050781 C 35.128906 139.769531 40.03125 141.972656 45.011719 144.140625 C 57.304688 149.484375 70.019531 152.371094 83.507812 150.089844 C 93.964844 148.320312 102.988281 143.503906 111.214844 137 C 112.171875 136.242188 113.15625 135.503906 114.324219 134.609375 C 114.324219 134.609375 114.328125 134.609375 114.328125 134.609375 C 115.0625 135.738281 115.753906 136.84375 116.464844 137.925781 C 116.902344 138.613281 117.34375 139.289062 117.800781 139.949219 C 118.125 140.410156 118.421875 140.722656 118.707031 140.917969 L 115.054688 132.605469 " fill-opacity="1" fill-rule="nonzero"/></g></g></g></g><g fill="#000000" fill-opacity="1"><g transform="translate(53.382677, 234.720046)"><g><path d="M 2.074219 4.890625 L 2.355469 5.476562 L 2.664062 5.976562 L 2.859375 6.390625 L 3.332031 7.089844 L 3.703125 7.332031 L 4.695312 8.15625 L 5.046875 8.3125 L 5.425781 8.523438 L 6.617188 8.882812 L 7.410156 8.898438 L 8.339844 8.757812 L 9.308594 8.410156 L 14.289062 5.992188 L 14.65625 5.886719 L 17.636719 4.417969 L 17.921875 4.050781 L 17.796875 3.394531 L 17.367188 2.441406 L 17.140625 2.0625 L 16.476562 0.527344 L 16.222656 0.140625 L 16.054688 -0.453125 L 15.691406 -0.972656 L 15.503906 -1.367188 L 15.144531 -1.683594 L 14.726562 -1.738281 L 14.347656 -1.511719 L 13.980469 -1.359375 L 13.535156 -1.125 L 13.214844 -1.019531 L 12.855469 -0.800781 L 12.523438 -0.480469 L 12.542969 0.0429688 L 12.65625 0.425781 L 12.917969 0.976562 L 13.234375 1.542969 L 13.214844 2.035156 L 12.953125 2.414062 L 7.128906 5.097656 L 6.679688 5.128906 L 6.316406 5.046875 L 5.679688 4.539062 L 5.363281 4.019531 L 5.222656 3.4375 L 5.175781 2.996094 L 5.203125 2.566406 L 5.324219 2.183594 L 5.582031 1.902344 L 6.113281 1.507812 L 6.953125 1.085938 L 7.308594 0.960938 L 7.550781 0.59375 L 7.503906 0.105469 L 6.972656 -1.101562 L 6.757812 -1.460938 L 6.558594 -1.875 L 6.191406 -2.210938 L 5.742188 -2.226562 L 5.074219 -1.929688 L 4.554688 -1.613281 L 3.980469 -1.363281 L 3.621094 -1.144531 L 3.296875 -0.851562 L 2.742188 -0.265625 L 2.050781 0.804688 L 1.910156 1.242188 L 1.664062 2.425781 L 1.734375 3.25 L 1.820312 3.625 L 1.847656 4.121094 L 2.007812 4.457031 Z M 2.074219 4.890625 "/></g></g></g><g fill="#000000" fill-opacity="1"><g transform="translate(62.56977, 252.775736)"><g><path d="M 3.9375 6.113281 L 5.613281 8.589844 L 6.011719 8.851562 L 6.503906 8.804688 L 8.265625 7.644531 L 8.492188 7.222656 L 8.40625 6.753906 L 8.109375 6.375 L 7.941406 6.007812 L 7.375 5.105469 L 6.925781 4.574219 L 6.734375 4.203125 L 6.464844 3.832031 L 6.296875 3.464844 L 6.011719 3.101562 L 5.945312 2.621094 L 6.167969 2.277344 L 7.269531 1.554688 L 7.738281 1.46875 L 8.136719 1.65625 L 8.496094 2.171875 L 8.8125 2.765625 L 9.28125 3.40625 L 9.734375 4.132812 L 10 4.457031 L 10.246094 4.871094 L 10.613281 5.128906 L 11.042969 5.023438 L 12.652344 4.042969 L 13.027344 3.546875 L 12.988281 2.996094 L 12.3125 1.964844 L 12.035156 1.621094 L 11.609375 0.855469 L 10.90625 -0.136719 L 10.824219 -0.605469 L 11.273438 -1.101562 L 11.816406 -1.457031 L 12.25 -1.515625 L 12.644531 -1.226562 L 12.84375 -0.882812 L 13.128906 -0.59375 L 14.734375 1.925781 L 14.972656 2.246094 L 15.421875 2.476562 L 15.851562 2.445312 L 16.1875 2.195312 L 16.550781 1.984375 L 17.574219 1.261719 L 17.804688 0.886719 L 17.714844 0.445312 L 17.472656 0.078125 L 17.335938 -0.28125 L 16.390625 -1.683594 L 16.101562 -2.046875 L 15.910156 -2.417969 L 15.695312 -2.703125 L 15.5 -3.074219 L 14.527344 -4.484375 L 14.347656 -4.871094 L 14.0625 -5.15625 L 13.890625 -5.492188 L 13.625 -5.820312 L 13.414062 -6.179688 L 13.035156 -6.457031 L 12.539062 -6.40625 L 11.898438 -5.9375 L 11.148438 -5.519531 L 10.800781 -5.214844 L 9.066406 -4.125 L 8.730469 -3.832031 L 8.378906 -3.648438 L 6.933594 -2.726562 L 6.652344 -2.46875 L 3.8125 -0.628906 L 3.457031 -0.445312 L 3.140625 -0.164062 L 1.902344 0.574219 L 1.542969 0.863281 L 1.160156 1.3125 L 1.277344 1.984375 L 2.085938 3.253906 L 2.375 3.617188 L 2.5625 3.941406 L 3.085938 4.625 L 3.234375 5 L 3.480469 5.414062 L 3.742188 5.742188 Z M 3.9375 6.113281 "/></g></g></g><g fill="#000000" fill-opacity="1"><g transform="translate(73.480765, 268.57914)"><g><path d="M 3.554688 4.355469 L 4.609375 5.628906 L 4.917969 5.914062 L 5.269531 6.160156 L 5.59375 6.433594 L 5.996094 6.636719 L 6.273438 6.894531 L 6.675781 7.070312 L 8.257812 7.574219 L 9.125 7.621094 L 9.484375 7.585938 L 9.980469 7.457031 L 10.347656 7.300781 L 10.699219 7.164062 L 11.566406 6.570312 L 12.042969 6.097656 L 12.75 5.066406 L 12.851562 4.671875 L 12.964844 3.851562 L 12.96875 3.347656 L 12.875 2.984375 L 12.800781 2.550781 L 12.105469 0.992188 L 11.878906 0.636719 L 11.617188 0.308594 L 11.394531 -0.0742188 L 10.996094 -0.53125 L 10.4375 -1.515625 L 10.214844 -2.347656 L 10.226562 -2.777344 L 10.644531 -3.25 L 11.136719 -3.542969 L 11.507812 -3.535156 L 11.886719 -3.449219 L 12.25 -3.320312 L 12.558594 -3.09375 L 13.015625 -2.601562 L 13.390625 -2.042969 L 13.558594 -1.691406 L 13.617188 -1.242188 L 13.632812 -0.785156 L 13.523438 -0.273438 L 13.621094 0.253906 L 14.332031 0.9375 L 14.671875 1.390625 L 14.945312 1.703125 L 15.160156 2.015625 L 15.644531 2.121094 L 16.019531 2.011719 L 16.265625 1.6875 L 16.535156 1.394531 L 16.96875 0.242188 L 17.140625 -0.519531 L 16.957031 -2.1875 L 16.484375 -3.332031 L 16.074219 -4.054688 L 15.046875 -5.292969 L 14.648438 -5.558594 L 14.359375 -5.859375 L 14.066406 -6.101562 L 13.355469 -6.535156 L 12.570312 -6.792969 L 11.390625 -7.09375 L 10.171875 -7 L 9.058594 -6.527344 L 8.246094 -5.902344 L 7.773438 -5.457031 L 7.238281 -4.796875 L 6.910156 -4.066406 L 6.691406 -2.851562 L 7.046875 -1.273438 L 7.351562 -0.539062 L 9.226562 2.175781 L 9.453125 2.976562 L 9.445312 3.347656 L 9.132812 3.785156 L 8.628906 4.003906 L 8.214844 4.003906 L 7.511719 3.675781 L 7.054688 3.214844 L 6.757812 2.972656 L 6.136719 2.101562 L 6.046875 1.710938 L 5.984375 1.292969 L 6.097656 0.277344 L 5.949219 -0.148438 L 5.667969 -0.402344 L 5.457031 -0.742188 L 4.332031 -1.898438 L 3.960938 -2.074219 L 3.519531 -1.910156 L 3.246094 -1.585938 L 2.988281 -1.25 L 2.785156 -0.90625 L 2.464844 -0.101562 L 2.453125 0.296875 L 2.394531 0.710938 L 2.53125 1.5625 L 2.488281 1.988281 L 2.605469 2.410156 L 2.789062 2.808594 L 3.101562 3.613281 Z M 3.554688 4.355469 "/></g></g></g><g fill="#000000" fill-opacity="1"><g transform="translate(87.395442, 283.620327)"><g><path d="M 5.1875 4.703125 L 5.839844 5.222656 L 6.261719 5.316406 L 6.679688 5.160156 L 8.050781 3.609375 L 8.125 3.144531 L 7.933594 2.667969 L 7.605469 2.378906 L 7.339844 1.921875 L 7.472656 1.394531 L 7.78125 1.140625 L 9.289062 -0.597656 L 9.625 -0.914062 L 10.558594 -2.09375 L 12.019531 -3.621094 L 12.449219 -3.882812 L 12.917969 -3.71875 L 13.273438 -3.488281 L 13.710938 -3.324219 L 14.089844 -3.433594 L 15.476562 -4.96875 L 15.550781 -5.433594 L 15.421875 -5.855469 L 13.527344 -7.53125 L 13.273438 -7.8125 L 12.90625 -8.027344 L 11.625 -9.160156 L 11.367188 -9.472656 L 11.007812 -9.789062 L 10.554688 -9.910156 L 10.066406 -9.671875 L 9.089844 -8.472656 L 8.796875 -8.203125 L 8.691406 -7.738281 L 8.882812 -7.261719 L 9.195312 -6.984375 L 9.328125 -6.535156 L 9.09375 -5.988281 L 4.890625 -1.140625 L 4.300781 -0.824219 L 2.992188 -1.425781 L 2.570312 -1.296875 L 1.25 0.101562 L 1.03125 0.664062 L 1.21875 1.082031 L 1.519531 1.34375 L 1.84375 1.574219 L 2.242188 2.039062 L 2.738281 2.453125 L 3.082031 2.699219 L 3.652344 3.316406 L 4.175781 3.667969 L 4.941406 4.347656 Z M 5.1875 4.703125 "/></g></g></g><g fill="#000000" fill-opacity="1"><g transform="translate(100.105331, 294.499546)"><g><path d="M 5.960938 4.164062 L 6.785156 4.8125 L 8.0625 5.535156 L 9.226562 6.011719 L 9.65625 6.042969 L 10.101562 6.164062 L 10.492188 6.222656 L 11.75 6.179688 L 12.558594 6.015625 L 13.308594 5.761719 L 14.089844 5.378906 L 15.421875 4.355469 L 15.523438 3.972656 L 15.328125 3.515625 L 14.304688 2.9375 L 13.992188 2.65625 L 13.632812 2.441406 L 13.296875 2.191406 L 12.757812 2.132812 L 12.292969 2.226562 L 11.902344 2.441406 L 11.199219 2.628906 L 10.757812 2.6875 L 10.429688 2.617188 L 9.601562 2.542969 L 8.644531 1.984375 L 8.171875 1.59375 L 7.695312 0.953125 L 7.296875 0.234375 L 7.09375 -0.554688 L 7.113281 -1.417969 L 7.222656 -1.847656 L 7.265625 -2.171875 L 7.386719 -2.542969 L 7.589844 -2.960938 L 8.292969 -4.019531 L 8.878906 -4.636719 L 9.554688 -5.089844 L 9.949219 -5.304688 L 10.691406 -5.511719 L 11.328125 -5.566406 L 11.972656 -5.515625 L 13.242188 -4.894531 L 13.96875 -4.363281 L 14.402344 -3.847656 L 14.632812 -3.519531 L 14.75 -3.164062 L 14.917969 -2.324219 L 14.9375 -1.9375 L 15.046875 -1.386719 L 15.320312 -0.929688 L 15.65625 -0.753906 L 16.011719 -0.496094 L 16.371094 -0.28125 L 16.824219 0.09375 L 17.378906 0.390625 L 17.769531 0.449219 L 18.121094 0.179688 L 18.273438 -0.273438 L 18.359375 -0.664062 L 18.496094 -1.101562 L 18.492188 -1.507812 L 18.519531 -1.890625 L 18.472656 -2.347656 L 18.5 -2.804688 L 18.347656 -3.632812 L 17.664062 -5.167969 L 16.363281 -6.835938 L 16.042969 -7.074219 L 15.730469 -7.355469 L 14.664062 -8.089844 L 12.757812 -8.882812 L 11.0625 -9.128906 L 10.304688 -9.082031 L 9.105469 -8.902344 L 8.242188 -8.621094 L 7.574219 -8.335938 L 6.492188 -7.652344 L 5.84375 -7.054688 L 4.675781 -5.671875 L 3.933594 -4.332031 L 3.519531 -3.179688 L 3.261719 -1.167969 L 3.464844 0.0703125 L 3.796875 1.269531 L 4.28125 2.167969 L 4.84375 3.019531 L 5.109375 3.296875 L 5.375 3.648438 L 5.644531 3.929688 Z M 5.960938 4.164062 "/></g></g></g><g fill="#000000" fill-opacity="1"><g transform="translate(119.860682, 306.896147)"><g><path d="M 11.195312 5.160156 L 11.945312 5.433594 L 12.289062 5.636719 L 12.886719 5.886719 L 13.460938 6.035156 L 13.726562 5.605469 L 13.792969 5.105469 L 13.828125 4.273438 L 13.769531 3.050781 L 13.824219 2.226562 L 13.753906 1.367188 L 13.824219 -0.691406 L 13.761719 -1.066406 L 13.738281 -1.511719 L 13.816406 -1.984375 L 13.773438 -2.347656 L 13.800781 -2.703125 L 13.722656 -3.585938 L 13.769531 -4.046875 L 13.722656 -7.261719 L 13.78125 -7.695312 L 13.730469 -8.132812 L 13.773438 -8.527344 L 13.714844 -9.355469 L 13.546875 -9.847656 L 13.007812 -10.324219 L 12.304688 -10.390625 L 11.8125 -10.222656 L 11.496094 -9.980469 L 11.1875 -9.660156 L 10.894531 -9.472656 L 9.335938 -8.070312 L 8.996094 -7.882812 L 8.730469 -7.542969 L 8.355469 -7.277344 L 8.085938 -6.988281 L 4.289062 -3.808594 L 3.984375 -3.441406 L 3.664062 -3.242188 L 3.355469 -2.921875 L 2.738281 -2.472656 L 2.105469 -1.839844 L 1.773438 -1.671875 L 1.523438 -1.371094 L 0.796875 -0.785156 L 0.507812 -0.457031 L 0.386719 0.0625 L 0.714844 0.347656 L 1.472656 0.648438 L 1.835938 0.859375 L 2.917969 1.308594 L 3.414062 1.375 L 3.933594 1.199219 L 4.558594 0.726562 L 5.085938 0.53125 L 5.582031 0.503906 L 5.917969 0.726562 L 6.75 1.015625 L 7.066406 1.226562 L 8.9375 2.058594 L 9.261719 2.253906 L 9.707031 2.386719 L 10.027344 2.789062 L 10.25 3.257812 L 10.257812 3.695312 L 10.214844 4.089844 L 10.464844 4.550781 L 10.816406 4.9375 Z M 9.042969 -1.542969 L 8.699219 -1.792969 L 8.242188 -1.953125 L 8 -2.226562 L 8.144531 -2.597656 L 9.976562 -4.242188 L 10.265625 -4.316406 L 10.460938 -4.042969 L 10.398438 -1.542969 L 10.167969 -1.238281 L 9.8125 -1.214844 Z M 9.042969 -1.542969 "/></g></g></g><g fill="#000000" fill-opacity="1"><g transform="translate(140.575003, 315.710912)"><g><path d="M 1.742188 -0.398438 L 1.765625 0.28125 L 2.273438 0.707031 L 2.695312 0.761719 L 3.320312 1.003906 L 3.652344 1.054688 L 4.257812 1.222656 L 4.957031 1.207031 L 5.304688 0.671875 L 5.496094 -0.0117188 L 5.640625 -0.359375 L 5.699219 -0.800781 L 6.101562 -2.074219 L 6.394531 -2.425781 L 6.839844 -2.539062 L 7.960938 -2.050781 L 8.265625 -1.59375 L 8.394531 -1.125 L 8.453125 -0.714844 L 8.707031 0.0078125 L 8.882812 0.835938 L 9.019531 1.203125 L 9.066406 1.648438 L 9.191406 2.054688 L 9.53125 2.539062 L 10.164062 2.914062 L 11.757812 3.34375 L 12.128906 3.492188 L 12.796875 3.660156 L 13.230469 3.585938 L 13.476562 3.175781 L 13.378906 2.671875 L 13.21875 2.324219 L 13.164062 1.894531 L 12.769531 0.675781 L 12.691406 0.265625 L 12.34375 -0.964844 L 12.1875 -1.332031 L 12.304688 -1.820312 L 12.609375 -2.210938 L 12.976562 -2.433594 L 13.328125 -2.597656 L 14.507812 -3.78125 L 15.101562 -4.875 L 15.417969 -6.152344 L 15.472656 -6.574219 L 15.433594 -7.820312 L 15.367188 -8.207031 L 15.238281 -8.59375 L 14.433594 -10.121094 L 13.835938 -10.703125 L 13.148438 -11.179688 L 12.074219 -11.765625 L 11.4375 -11.96875 L 10.84375 -12.09375 L 9.636719 -12.433594 L 9.257812 -12.628906 L 8.855469 -12.742188 L 8.464844 -12.742188 L 8.0625 -12.855469 L 7.683594 -13.050781 L 7.246094 -13.195312 L 6.03125 -13.429688 L 5.613281 -13.332031 L 5.210938 -12.835938 L 3.929688 -8.226562 L 3.855469 -7.8125 L 3.570312 -7.023438 L 3.464844 -6.578125 L 3.351562 -6.175781 L 3.285156 -5.78125 L 3.136719 -5.410156 L 2.65625 -3.789062 L 2.582031 -3.375 Z M 7.75 -5.757812 L 7.410156 -6.09375 L 7.339844 -6.460938 L 7.679688 -7.664062 L 7.738281 -8.019531 L 8.015625 -8.851562 L 8.304688 -9.183594 L 8.773438 -9.226562 L 9.167969 -9.089844 L 9.996094 -8.945312 L 10.523438 -8.664062 L 11.035156 -8.476562 L 11.390625 -8.269531 L 11.71875 -7.503906 L 11.746094 -7.148438 L 11.679688 -6.601562 L 11.449219 -6.015625 L 11.152344 -5.664062 L 10.847656 -5.425781 L 10.574219 -5.304688 L 10.167969 -5.246094 L 9.546875 -5.273438 L 9.15625 -5.359375 L 8.203125 -5.671875 Z M 7.75 -5.757812 "/></g></g></g><g fill="#000000" fill-opacity="1"><g transform="translate(161.772027, 321.18302)"><g><path d="M 8.289062 1.242188 L 10.160156 1.273438 L 10.976562 1.117188 L 12.921875 0.503906 L 14.535156 -0.71875 L 14.851562 -1.058594 L 15.828125 -2.398438 L 16.019531 -2.773438 L 16.128906 -3.183594 L 16.292969 -3.5 L 16.429688 -3.945312 L 16.703125 -5.386719 L 16.765625 -6.832031 L 16.691406 -7.617188 L 16.574219 -8.074219 L 16.527344 -8.5625 L 16.234375 -9.292969 L 16.132812 -9.683594 L 15.90625 -10.066406 L 15.683594 -10.34375 L 15.457031 -10.75 L 14.660156 -11.664062 L 13.679688 -12.453125 L 11.0625 -13.621094 L 10.089844 -13.757812 L 8.625 -13.84375 L 8.199219 -13.808594 L 7.769531 -13.734375 L 7.378906 -13.609375 L 6.566406 -13.496094 L 5.429688 -12.953125 L 5.109375 -12.738281 L 4.390625 -12.359375 L 3.757812 -11.804688 L 2.929688 -10.847656 L 2.703125 -10.519531 L 2.175781 -9.421875 L 1.90625 -8.550781 L 1.539062 -6.152344 L 1.617188 -4.816406 L 1.84375 -4.074219 L 1.917969 -3.625 L 2.082031 -3.226562 L 2.902344 -1.785156 L 3.417969 -1.15625 L 3.652344 -0.8125 L 4.972656 0.0976562 L 5.347656 0.308594 L 7.050781 1.035156 Z M 8.136719 -2.476562 L 7.738281 -2.671875 L 7.371094 -2.757812 L 6.707031 -3.210938 L 6.128906 -3.847656 L 5.957031 -4.164062 L 5.722656 -4.484375 L 5.460938 -5.691406 L 5.480469 -6.742188 L 5.574219 -7.363281 L 5.808594 -8.113281 L 5.976562 -8.472656 L 6.261719 -8.734375 L 6.488281 -9.066406 L 6.796875 -9.367188 L 7.140625 -9.597656 L 7.789062 -9.945312 L 8.1875 -10.085938 L 8.632812 -10.140625 L 9.597656 -10.109375 L 10.585938 -9.933594 L 11.632812 -9.324219 L 12.21875 -8.773438 L 12.613281 -8.011719 L 12.734375 -7.617188 L 12.8125 -7.1875 L 12.914062 -6.796875 L 12.890625 -5.898438 L 12.644531 -4.875 L 12.359375 -4.042969 L 12.09375 -3.761719 L 11.871094 -3.46875 L 11.578125 -3.125 L 10.878906 -2.703125 L 10.484375 -2.582031 L 10.128906 -2.433594 L 9.75 -2.433594 L 9.34375 -2.378906 Z M 8.136719 -2.476562 "/></g></g></g><g fill="#000000" fill-opacity="1"><g transform="translate(185.785002, 323.287347)"><g><path d="M 5.625 -0.0273438 L 7.273438 -0.046875 L 7.691406 -0.105469 L 8.105469 -0.226562 L 8.519531 -0.304688 L 8.929688 -0.488281 L 9.304688 -0.542969 L 9.695312 -0.746094 L 11.082031 -1.65625 L 11.664062 -2.304688 L 11.859375 -2.605469 L 12.074219 -3.074219 L 12.183594 -3.453125 L 12.296875 -3.816406 L 12.382812 -4.863281 L 12.3125 -5.53125 L 11.953125 -6.730469 L 11.710938 -7.054688 L 11.144531 -7.660156 L 10.757812 -7.980469 L 10.417969 -8.132812 L 10.03125 -8.347656 L 8.382812 -8.789062 L 7.964844 -8.835938 L 7.546875 -8.839844 L 7.105469 -8.90625 L 6.5 -8.882812 L 5.382812 -9.070312 L 4.597656 -9.417969 L 4.273438 -9.699219 L 4.164062 -10.320312 L 4.246094 -10.890625 L 4.488281 -11.167969 L 4.792969 -11.410156 L 5.121094 -11.613281 L 5.492188 -11.710938 L 6.160156 -11.757812 L 6.832031 -11.699219 L 7.210938 -11.609375 L 7.597656 -11.371094 L 7.960938 -11.09375 L 8.292969 -10.6875 L 8.761719 -10.433594 L 9.738281 -10.554688 L 10.304688 -10.535156 L 10.722656 -10.550781 L 11.097656 -10.523438 L 11.484375 -10.832031 L 11.636719 -11.191406 L 11.539062 -11.585938 L 11.484375 -11.980469 L 10.855469 -13.042969 L 10.375 -13.652344 L 8.957031 -14.5625 L 7.773438 -14.914062 L 6.953125 -15.046875 L 5.34375 -15.027344 L 4.890625 -14.886719 L 4.472656 -14.847656 L 4.097656 -14.773438 L 3.316406 -14.492188 L 2.621094 -14.046875 L 1.644531 -13.320312 L 0.953125 -12.3125 L 0.621094 -11.148438 L 0.597656 -10.121094 L 0.640625 -9.476562 L 0.820312 -8.644531 L 1.183594 -7.929688 L 1.992188 -6.996094 L 3.441406 -6.277344 L 4.203125 -6.058594 L 7.496094 -5.804688 L 8.257812 -5.480469 L 8.539062 -5.238281 L 8.6875 -4.722656 L 8.539062 -4.195312 L 8.277344 -3.871094 L 7.582031 -3.53125 L 6.9375 -3.464844 L 6.5625 -3.386719 L 5.492188 -3.449219 L 5.132812 -3.625 L 4.765625 -3.839844 L 4.050781 -4.566406 L 3.625 -4.71875 L 3.25 -4.660156 L 2.851562 -4.710938 L 1.246094 -4.5625 L 0.878906 -4.382812 L 0.726562 -3.9375 L 0.804688 -3.523438 L 0.90625 -3.109375 L 1.046875 -2.738281 L 1.472656 -1.980469 L 1.773438 -1.71875 L 2.058594 -1.417969 L 2.804688 -0.984375 L 3.109375 -0.683594 L 3.515625 -0.511719 L 3.9375 -0.402344 L 4.761719 -0.140625 Z M 5.625 -0.0273438 "/></g></g></g><g fill="#000000" fill-opacity="1"><g transform="translate(206.230156, 321.925002)"><g><path d="M 6.917969 -1.078125 L 7.734375 -1.257812 L 8.070312 -1.523438 L 8.210938 -1.949219 L 7.867188 -3.992188 L 7.554688 -4.339844 L 7.0625 -4.492188 L 6.632812 -4.417969 L 6.109375 -4.5 L 5.78125 -4.933594 L 5.777344 -5.335938 L 5.378906 -7.597656 L 5.34375 -8.058594 L 5.011719 -9.527344 L 4.742188 -11.625 L 4.808594 -12.121094 L 5.230469 -12.382812 L 5.632812 -12.515625 L 6.039062 -12.75 L 6.1875 -13.117188 L 5.867188 -15.160156 L 5.554688 -15.507812 L 5.144531 -15.671875 L 2.652344 -15.253906 L 2.273438 -15.234375 L 1.875 -15.082031 L 0.183594 -14.796875 L -0.21875 -14.792969 L -0.691406 -14.714844 L -1.070312 -14.441406 L -1.191406 -13.910156 L -0.875 -12.394531 L -0.847656 -11.996094 L -0.554688 -11.625 L -0.0625 -11.472656 L 0.351562 -11.542969 L 0.785156 -11.359375 L 1.0625 -10.835938 L 2.1875 -4.519531 L 2.0625 -3.863281 L 0.773438 -3.222656 L 0.609375 -2.8125 L 0.863281 -0.90625 L 1.164062 -0.386719 L 1.605469 -0.269531 L 2 -0.335938 L 2.382812 -0.441406 L 2.996094 -0.460938 L 3.628906 -0.589844 L 4.035156 -0.699219 L 4.875 -0.753906 L 5.476562 -0.941406 L 6.488281 -1.109375 Z M 6.917969 -1.078125 "/></g></g></g><g fill="#000000" fill-opacity="1"><g transform="translate(222.556092, 318.815368)"><g><path d="M 6.988281 -2.015625 L 9.839844 -2.910156 L 10.203125 -3.214844 L 10.300781 -3.703125 L 9.695312 -5.726562 L 9.355469 -6.058594 L 8.882812 -6.113281 L 8.433594 -5.9375 L 8.035156 -5.882812 L 7.007812 -5.597656 L 6.371094 -5.324219 L 5.960938 -5.242188 L 5.523438 -5.089844 L 5.125 -5.039062 L 4.699219 -4.867188 L 4.21875 -4.941406 L 3.949219 -5.253906 L 3.574219 -6.515625 L 3.628906 -6.992188 L 3.921875 -7.316406 L 4.519531 -7.515625 L 5.175781 -7.648438 L 5.925781 -7.914062 L 6.753906 -8.140625 L 7.140625 -8.300781 L 7.609375 -8.417969 L 7.960938 -8.695312 L 7.980469 -9.136719 L 7.503906 -10.957031 L 7.136719 -11.460938 L 6.597656 -11.582031 L 5.417969 -11.230469 L 5.007812 -11.066406 L 4.148438 -10.875 L 3 -10.488281 L 2.527344 -10.542969 L 2.179688 -11.117188 L 1.996094 -11.738281 L 2.0625 -12.171875 L 2.457031 -12.460938 L 2.84375 -12.554688 L 3.199219 -12.75 L 6.074219 -13.5625 L 6.449219 -13.695312 L 6.796875 -14.0625 L 6.890625 -14.480469 L 6.75 -14.875 L 6.652344 -15.28125 L 6.253906 -16.472656 L 5.960938 -16.800781 L 5.511719 -16.839844 L 5.089844 -16.714844 L 4.707031 -16.6875 L 3.089844 -16.183594 L 2.664062 -16.011719 L 2.25 -15.933594 L 1.914062 -15.8125 L 1.503906 -15.730469 L -0.125 -15.203125 L -0.546875 -15.144531 L -0.902344 -14.949219 L -1.273438 -14.882812 L -1.664062 -14.722656 L -2.070312 -14.625 L -2.441406 -14.339844 L -2.535156 -13.851562 L -2.269531 -13.101562 L -2.085938 -12.265625 L -1.894531 -11.839844 L -1.347656 -9.867188 L -1.164062 -9.464844 L -1.089844 -9.070312 L -0.621094 -7.425781 L -0.453125 -7.082031 L 0.492188 -3.832031 L 0.566406 -3.4375 L 0.746094 -3.058594 L 1.097656 -1.65625 L 1.269531 -1.230469 L 1.589844 -0.734375 L 2.269531 -0.65625 L 3.714844 -1.0625 L 4.144531 -1.234375 L 4.511719 -1.324219 L 5.316406 -1.628906 L 5.71875 -1.660156 L 6.183594 -1.777344 L 6.574219 -1.9375 Z M 6.988281 -2.015625 "/></g></g></g><g fill="#000000" fill-opacity="1"><g transform="translate(240.866135, 312.91558)"><g><path d="M 1.066406 -1.433594 L 1.527344 -0.933594 L 2.191406 -0.9375 L 2.542969 -1.171875 L 3.175781 -1.394531 L 3.464844 -1.570312 L 4.03125 -1.832031 L 4.554688 -2.300781 L 4.472656 -2.929688 L 4.175781 -3.574219 L 4.054688 -3.933594 L 3.8125 -4.308594 L 3.292969 -5.539062 L 3.289062 -6 L 3.554688 -6.375 L 4.726562 -6.726562 L 5.253906 -6.578125 L 5.65625 -6.304688 L 5.964844 -6.03125 L 6.625 -5.648438 L 7.300781 -5.128906 L 7.640625 -4.941406 L 7.964844 -4.632812 L 8.324219 -4.402344 L 8.898438 -4.253906 L 9.621094 -4.378906 L 11.113281 -5.089844 L 11.492188 -5.21875 L 12.109375 -5.523438 L 12.390625 -5.863281 L 12.3125 -6.332031 L 11.914062 -6.652344 L 11.5625 -6.8125 L 11.246094 -7.105469 L 10.152344 -7.777344 L 9.824219 -8.039062 L 8.765625 -8.746094 L 8.40625 -8.925781 L 8.175781 -9.375 L 8.15625 -9.871094 L 8.289062 -10.277344 L 8.453125 -10.625 L 8.582031 -12.296875 L 8.320312 -13.511719 L 7.730469 -14.6875 L 7.5 -15.042969 L 6.660156 -15.96875 L 6.359375 -16.21875 L 6.011719 -16.429688 L 4.40625 -17.070312 L 3.578125 -17.125 L 2.742188 -17.039062 L 1.546875 -16.789062 L 0.929688 -16.527344 L 0.398438 -16.238281 L -0.742188 -15.710938 L -1.15625 -15.613281 L -1.535156 -15.4375 L -1.835938 -15.1875 L -2.214844 -15.011719 L -2.628906 -14.914062 L -3.054688 -14.742188 L -4.132812 -14.128906 L -4.386719 -13.785156 L -4.367188 -13.148438 L -2.351562 -8.808594 L -2.136719 -8.445312 L -1.84375 -7.660156 L -1.632812 -7.253906 L -1.460938 -6.871094 L -1.253906 -6.53125 L -1.128906 -6.152344 L -0.4375 -4.605469 L -0.226562 -4.242188 Z M 2.15625 -9.410156 L 1.679688 -9.445312 L 1.390625 -9.679688 L 0.867188 -10.816406 L 0.679688 -11.121094 L 0.351562 -11.9375 L 0.355469 -12.375 L 0.683594 -12.710938 L 1.074219 -12.867188 L 1.796875 -13.292969 L 2.378906 -13.421875 L 2.890625 -13.613281 L 3.296875 -13.683594 L 4.042969 -13.3125 L 4.296875 -13.0625 L 4.597656 -12.601562 L 4.804688 -12.007812 L 4.808594 -11.550781 L 4.730469 -11.167969 L 4.597656 -10.902344 L 4.328125 -10.59375 L 3.835938 -10.207031 L 3.484375 -10.023438 L 2.558594 -9.640625 Z M 2.15625 -9.410156 "/></g></g></g><g fill="#000000" fill-opacity="1"><g transform="translate(260.190526, 303.277109)"><g><path d="M 2.289062 -1.304688 L 2.742188 -1.5625 L 2.90625 -1.734375 L 3.085938 -1.84375 L 3.238281 -2.035156 L 3.378906 -2.320312 L 3.480469 -2.480469 L 3.550781 -2.722656 L 3.601562 -2.996094 L 3.617188 -3.253906 L 3.4375 -3.902344 L 3.207031 -4.324219 L 3.003906 -4.492188 L 2.847656 -4.667969 L 2.597656 -4.832031 L 2.363281 -4.933594 L 2.175781 -4.964844 L 1.941406 -5.066406 L 1.679688 -5.050781 L 1.453125 -5.0625 L 1.21875 -4.964844 L 0.929688 -4.910156 L 0.722656 -4.808594 L 0.324219 -4.539062 L -0.0234375 -4.226562 L -0.210938 -4.015625 L -0.308594 -3.855469 L -0.480469 -3.335938 L -0.578125 -2.855469 L -0.523438 -2.648438 L -0.492188 -2.394531 L 0.0507812 -1.550781 L 0.226562 -1.390625 L 0.433594 -1.246094 L 0.628906 -1.171875 L 0.921875 -1.132812 L 1.101562 -1.042969 L 1.652344 -1.0625 L 1.84375 -1.109375 L 2.109375 -1.199219 Z M 2.289062 -1.304688 "/></g></g></g><g fill="#000000" fill-opacity="1"><g transform="translate(271.194533, 296.299891)"><g><path d="M 0.828125 -1.480469 L 1.234375 -1.265625 L 1.703125 -1.316406 L 2.207031 -1.792969 L 2.738281 -2.132812 L 5.089844 -4.039062 L 5.457031 -4.25 L 7.082031 -5.664062 L 7.339844 -5.945312 L 8.050781 -6.933594 L 8.230469 -7.316406 L 8.472656 -8.355469 L 8.433594 -9.3125 L 8.339844 -9.769531 L 8.191406 -10.160156 L 8.078125 -10.574219 L 7.0625 -11.929688 L 6.417969 -12.378906 L 5.589844 -12.820312 L 5.183594 -12.898438 L 4.738281 -12.917969 L 4.277344 -13.167969 L 4.148438 -13.570312 L 3.953125 -14.457031 L 3.683594 -15.199219 L 3.261719 -15.773438 L 2.828125 -16.253906 L 2.230469 -16.742188 L 1.84375 -16.996094 L 0.707031 -17.324219 L 0.28125 -17.359375 L -0.09375 -17.328125 L -0.46875 -17.328125 L -0.875 -17.273438 L -1.304688 -17.175781 L -1.660156 -17.050781 L -2.417969 -16.695312 L -4.144531 -15.414062 L -4.386719 -15.113281 L -5.09375 -14.691406 L -5.335938 -14.390625 L -7.347656 -12.859375 L -7.578125 -12.410156 L -7.472656 -11.9375 L -7.1875 -11.574219 L -6.921875 -11.304688 L -6.664062 -10.949219 L -6.417969 -10.667969 L -5.6875 -9.671875 L -5.09375 -9.023438 L -2.6875 -5.835938 L -2.25 -5.382812 L 0.550781 -1.765625 Z M -0.929688 -10.628906 L -1.429688 -10.554688 L -1.972656 -10.871094 L -2.429688 -11.414062 L -2.609375 -12.046875 L -2.453125 -12.488281 L -0.671875 -13.707031 L -0.304688 -13.78125 L 0.03125 -13.625 L 0.46875 -13.171875 L 0.730469 -12.605469 L 0.640625 -12.214844 L 0.292969 -11.675781 Z M 2.472656 -6.210938 L 2.089844 -6.089844 L 1.617188 -6.25 L 0.890625 -7.273438 L 0.816406 -7.667969 L 0.925781 -8.101562 L 1.277344 -8.300781 L 1.597656 -8.605469 L 3.253906 -9.671875 L 3.625 -9.777344 L 4.023438 -9.613281 L 4.445312 -9.28125 L 4.738281 -8.738281 L 4.738281 -8.367188 L 4.601562 -7.964844 L 3.761719 -7.171875 Z M 2.472656 -6.210938 "/></g></g></g><g fill="#000000" fill-opacity="1"><g transform="translate(287.326632, 282.842777)"><g><path d="M 0.558594 -1.664062 L 1.054688 -1.394531 L 1.480469 -1.535156 L 1.796875 -1.808594 L 2.363281 -2.480469 L 2.957031 -3.039062 L 3.480469 -3.640625 L 3.800781 -3.882812 L 4.089844 -4.242188 L 6.972656 -7.207031 L 7.097656 -7.640625 L 6.792969 -8.253906 L 5.558594 -9.414062 L 4.976562 -9.714844 L 4.535156 -9.617188 L 4.261719 -9.269531 L 4.046875 -8.925781 L 3.695312 -8.65625 L 3.117188 -8.023438 L 2.765625 -7.78125 L 2.550781 -7.464844 L 1.953125 -6.90625 L 1.679688 -6.5625 L 1.269531 -6.378906 L 0.851562 -6.546875 L -4.234375 -11.476562 L -4.625 -11.792969 L -5.195312 -12.40625 L -6.097656 -13.1875 L -6.371094 -13.476562 L -6.84375 -13.644531 L -7.316406 -13.519531 L -7.882812 -12.929688 L -8.109375 -12.570312 L -8.75 -12.027344 L -8.980469 -11.699219 L -9.164062 -11.265625 L -8.964844 -10.8125 L -6.859375 -8.78125 L -6.601562 -8.476562 L -6.269531 -8.21875 L -5.757812 -7.636719 L -5.414062 -7.332031 L -5.097656 -7.085938 Z M 0.558594 -1.664062 "/></g></g></g><g fill="#000000" fill-opacity="1"><g transform="translate(299.95325, 269.248459)"><g><path d="M 5.085938 -6.664062 L 6.015625 -8.285156 L 6.273438 -9.078125 L 6.671875 -11.078125 L 6.382812 -13.082031 L 6.234375 -13.519531 L 5.53125 -15.023438 L 5.292969 -15.371094 L 4.992188 -15.664062 L 4.789062 -15.960938 L 4.464844 -16.296875 L 3.335938 -17.230469 L 2.101562 -17.984375 L 1.375 -18.296875 L 0.921875 -18.414062 L 0.46875 -18.609375 L -0.3125 -18.703125 L -0.703125 -18.800781 L -1.148438 -18.789062 L -1.5 -18.730469 L -1.964844 -18.726562 L -3.148438 -18.46875 L -4.3125 -17.988281 L -6.597656 -16.257812 L -7.1875 -15.472656 L -7.96875 -14.230469 L -8.140625 -13.84375 L -8.28125 -13.429688 L -8.367188 -13.027344 L -8.65625 -12.257812 L -8.730469 -11.003906 L -8.695312 -10.621094 L -8.710938 -9.808594 L -8.527344 -8.984375 L -8.089844 -7.800781 L -7.910156 -7.441406 L -7.207031 -6.449219 L -6.570312 -5.792969 L -4.648438 -4.316406 L -3.441406 -3.738281 L -2.679688 -3.582031 L -2.25 -3.429688 L -1.824219 -3.378906 L -0.164062 -3.402344 L 0.632812 -3.550781 L 1.046875 -3.589844 L 2.484375 -4.308594 L 2.851562 -4.535156 L 4.308594 -5.679688 Z M 1.753906 -8.324219 L 1.390625 -8.066406 L 1.140625 -7.785156 L 0.421875 -7.425781 L -0.414062 -7.226562 L -0.773438 -7.226562 L -1.167969 -7.175781 L -2.351562 -7.53125 L -3.265625 -8.054688 L -3.761719 -8.433594 L -4.308594 -9 L -4.539062 -9.324219 L -4.632812 -9.695312 L -4.8125 -10.054688 L -4.925781 -10.472656 L -4.964844 -10.882812 L -4.953125 -11.621094 L -4.890625 -12.035156 L -4.71875 -12.453125 L -4.230469 -13.285156 L -3.59375 -14.0625 L -2.5625 -14.6875 L -1.792969 -14.933594 L -0.9375 -14.914062 L -0.53125 -14.832031 L -0.121094 -14.691406 L 0.269531 -14.589844 L 1.050781 -14.136719 L 1.828125 -13.429688 L 2.417969 -12.777344 L 2.539062 -12.410156 L 2.683594 -12.074219 L 2.84375 -11.652344 L 2.878906 -10.832031 L 2.792969 -10.429688 L 2.753906 -10.046875 L 2.570312 -9.71875 L 2.425781 -9.332031 Z M 1.753906 -8.324219 "/></g></g></g><g fill="#000000" fill-opacity="1"><g transform="translate(313.470975, 249.198952)"><g><path d="M 3.375 -6.417969 L 4.296875 -8.296875 L 4.648438 -9.871094 L 4.625 -11.53125 L 4.457031 -12.335938 L 4.296875 -12.761719 L 4.207031 -13.15625 L 4.054688 -13.507812 L 3.828125 -13.851562 L 3.574219 -14.1875 L 3.421875 -14.539062 L 2.5 -15.457031 L 1.859375 -15.957031 L 1.550781 -16.132812 L 1.246094 -16.375 L 0.871094 -16.558594 L 0.535156 -16.769531 L -0.195312 -17.082031 L -0.609375 -17.050781 L -0.96875 -16.785156 L -1.183594 -16.398438 L -1.429688 -16.035156 L -2.617188 -13.472656 L -3.242188 -12.382812 L -3.535156 -11.640625 L -3.53125 -11.175781 L -3.257812 -10.832031 L -1.476562 -9.957031 L -1.089844 -9.980469 L -0.71875 -10.21875 L -0.414062 -10.742188 L -0.03125 -11.71875 L 0.191406 -12.027344 L 0.460938 -12.246094 L 0.804688 -12.144531 L 1.035156 -11.800781 L 1.214844 -11.363281 L 1.292969 -11 L 1.234375 -10.261719 L 1.042969 -9.445312 L 0.824219 -8.949219 L 0.242188 -8.046875 L -0.667969 -7.238281 L -1.46875 -6.929688 L -1.832031 -6.851562 L -2.683594 -6.828125 L -3.300781 -6.945312 L -3.945312 -7.144531 L -5.042969 -7.660156 L -5.710938 -8.148438 L -6.238281 -8.78125 L -6.835938 -9.792969 L -6.984375 -10.679688 L -6.996094 -11.082031 L -6.859375 -11.457031 L -6.855469 -11.847656 L -6.332031 -13.011719 L -5.804688 -13.613281 L -5.480469 -13.898438 L -5.058594 -14.132812 L -4.707031 -14.238281 L -4.265625 -14.328125 L -3.753906 -14.566406 L -3.402344 -14.953125 L -3.101562 -15.523438 L -2.898438 -16.125 L -2.402344 -16.996094 L -2.378906 -17.566406 L -2.640625 -17.835938 L -3.539062 -17.949219 L -3.960938 -17.945312 L -5.417969 -17.730469 L -5.957031 -17.480469 L -6.386719 -17.320312 L -6.75 -17.148438 L -8.085938 -16.175781 L -8.355469 -15.816406 L -9.03125 -15.054688 L -9.960938 -13.347656 L -10.125 -12.960938 L -10.167969 -12.585938 L -10.324219 -12.222656 L -10.507812 -10.519531 L -10.375 -9.175781 L -10.046875 -7.992188 L -9.867188 -7.601562 L -9.722656 -7.179688 L -9.542969 -6.835938 L -8.472656 -5.453125 L -6.78125 -4.207031 L -6.191406 -3.890625 L -4.832031 -3.34375 L -2.808594 -3.003906 L -2.007812 -3.03125 L -1.15625 -3.148438 L 0 -3.511719 L 0.734375 -3.921875 L 2.117188 -4.847656 L 2.367188 -5.121094 L 3.082031 -6.097656 Z M 3.375 -6.417969 "/></g></g></g><g fill="#000000" fill-opacity="1"><g transform="translate(68.08977, 140.674081)"><g><path d="M 5.921875 -10.8125 L 6.246094 -11.539062 L 6.472656 -11.871094 L 6.761719 -12.449219 L 6.949219 -13.011719 L 6.539062 -13.308594 L 6.046875 -13.40625 L 5.21875 -13.5 L 3.992188 -13.523438 L 3.175781 -13.636719 L 2.3125 -13.628906 L 0.265625 -13.839844 L -0.109375 -13.804688 L -0.558594 -13.808594 L -1.023438 -13.917969 L -1.386719 -13.902344 L -1.742188 -13.953125 L -2.628906 -13.9375 L -3.085938 -14.015625 L -6.296875 -14.191406 L -6.722656 -14.28125 L -7.164062 -14.257812 L -7.554688 -14.328125 L -8.386719 -14.328125 L -8.886719 -14.195312 L -9.398438 -13.691406 L -9.515625 -12.992188 L -9.382812 -12.492188 L -9.160156 -12.15625 L -8.863281 -11.828125 L -8.695312 -11.523438 L -7.40625 -9.871094 L -7.242188 -9.519531 L -6.921875 -9.230469 L -6.683594 -8.839844 L -6.414062 -8.546875 L -3.5 -4.542969 L -3.15625 -4.210938 L -2.980469 -3.878906 L -2.683594 -3.550781 L -2.277344 -2.902344 L -1.691406 -2.226562 L -1.542969 -1.886719 L -1.261719 -1.613281 L -0.730469 -0.847656 L -0.421875 -0.539062 L 0.0859375 -0.378906 L 0.398438 -0.6875 L 0.75 -1.421875 L 0.984375 -1.769531 L 1.507812 -2.820312 L 1.609375 -3.3125 L 1.46875 -3.839844 L 1.042969 -4.5 L 0.882812 -5.039062 L 0.890625 -5.53125 L 1.132812 -5.851562 L 1.480469 -6.664062 L 1.714844 -6.964844 L 2.671875 -8.773438 L 2.890625 -9.082031 L 3.054688 -9.515625 L 3.476562 -9.8125 L 3.957031 -10 L 4.398438 -9.976562 L 4.789062 -9.90625 L 5.261719 -10.125 L 5.675781 -10.449219 Z M -0.914062 -9.128906 L -1.1875 -8.800781 L -1.378906 -8.359375 L -1.667969 -8.136719 L -2.027344 -8.304688 L -3.542969 -10.246094 L -3.597656 -10.539062 L -3.308594 -10.714844 L -0.820312 -10.480469 L -0.53125 -10.226562 L -0.535156 -9.871094 Z M -0.914062 -9.128906 "/></g></g></g><g fill="#000000" fill-opacity="1"><g transform="translate(78.145149, 122.972003)"><g><path d="M 7.230469 -9.992188 L 7.839844 -10.234375 L 8.246094 -10.660156 L 8.410156 -11.113281 L 8.207031 -11.535156 L 2.183594 -16.214844 L 1.863281 -16.382812 L 0.222656 -17.640625 L -0.136719 -17.996094 L -2.476562 -19.71875 L -2.933594 -19.808594 L -3.371094 -19.617188 L -4.933594 -17.546875 L -4.992188 -17.09375 L -4.785156 -16.644531 L -4.449219 -16.359375 L -4.148438 -16.207031 L -3.488281 -15.621094 L -3.101562 -15.375 L -0.160156 -13.0625 L 0.046875 -12.746094 L -0.261719 -12.585938 L -2.34375 -12.316406 L -3.0625 -12.128906 L -8.867188 -11.402344 L -9.257812 -11.304688 L -9.75 -11.078125 L -10.246094 -10.667969 L -10.375 -10.160156 L -10.175781 -9.769531 L -5.15625 -5.910156 L -4.886719 -5.679688 L -4.179688 -5.191406 L -3.9375 -4.921875 L -1.195312 -2.867188 L -0.90625 -2.59375 L 0.511719 -1.558594 L 0.941406 -1.464844 L 1.324219 -1.722656 L 1.878906 -2.375 L 2.125 -2.765625 L 2.671875 -3.375 L 2.921875 -3.734375 L 3.011719 -4.195312 L 2.625 -4.753906 L -1.554688 -7.992188 L -1.859375 -8.28125 L -2.050781 -8.613281 L -1.804688 -8.765625 L -1.355469 -8.761719 L 0.675781 -9.074219 L 1.089844 -9.097656 L 1.488281 -9.238281 L 6.011719 -9.847656 L 6.824219 -9.910156 Z M 7.230469 -9.992188 "/></g></g></g><g fill="#000000" fill-opacity="1"><g transform="translate(91.216186, 106.631925)"><g><path d="M 5.410156 -4.863281 L 6.226562 -5.515625 L 7.222656 -6.59375 L 7.945312 -7.625 L 8.078125 -8.03125 L 8.296875 -8.441406 L 8.441406 -8.804688 L 8.683594 -10.039062 L 8.710938 -10.867188 L 8.632812 -11.652344 L 8.433594 -12.5 L 7.742188 -14.03125 L 7.394531 -14.21875 L 6.902344 -14.128906 L 6.109375 -13.265625 L 5.761719 -13.027344 L 5.46875 -12.722656 L 5.152344 -12.453125 L 4.972656 -11.941406 L 4.960938 -11.46875 L 5.078125 -11.035156 L 5.101562 -10.3125 L 5.058594 -9.867188 L 4.917969 -9.5625 L 4.65625 -8.773438 L 3.890625 -7.96875 L 3.410156 -7.597656 L 2.675781 -7.28125 L 1.882812 -7.054688 L 1.070312 -7.035156 L 0.234375 -7.25 L -0.160156 -7.453125 L -0.464844 -7.566406 L -0.800781 -7.769531 L -1.160156 -8.0625 L -2.035156 -8.988281 L -2.5 -9.699219 L -2.789062 -10.460938 L -2.90625 -10.894531 L -2.941406 -11.664062 L -2.851562 -12.296875 L -2.652344 -12.910156 L -1.761719 -14.007812 L -1.082031 -14.59375 L -0.480469 -14.898438 L -0.105469 -15.050781 L 0.265625 -15.085938 L 1.121094 -15.058594 L 1.503906 -14.988281 L 2.066406 -14.96875 L 2.574219 -15.132812 L 2.816406 -15.421875 L 3.152344 -15.707031 L 3.441406 -16.007812 L 3.910156 -16.363281 L 4.324219 -16.839844 L 4.46875 -17.203125 L 4.289062 -17.609375 L 3.882812 -17.855469 L 3.515625 -18.03125 L 3.125 -18.265625 L 2.730469 -18.351562 L 2.363281 -18.464844 L 1.90625 -18.523438 L 1.46875 -18.65625 L 0.625 -18.695312 L -1.023438 -18.375 L -2.945312 -17.488281 L -3.246094 -17.230469 L -3.59375 -16.988281 L -4.550781 -16.117188 L -5.757812 -14.4375 L -6.378906 -12.847656 L -6.507812 -12.097656 L -6.601562 -10.886719 L -6.527344 -9.984375 L -6.402344 -9.269531 L -5.980469 -8.058594 L -5.542969 -7.292969 L -4.464844 -5.839844 L -3.328125 -4.816406 L -2.296875 -4.148438 L -0.398438 -3.441406 L 0.855469 -3.359375 L 2.097656 -3.410156 L 3.082031 -3.675781 L 4.039062 -4.03125 L 4.371094 -4.226562 L 4.773438 -4.40625 L 5.105469 -4.605469 Z M 5.410156 -4.863281 "/></g></g></g><g fill="#000000" fill-opacity="1"><g transform="translate(106.893373, 92.478141)"><g><path d="M 0.933594 -1.339844 L 1.363281 -1.152344 L 1.820312 -1.1875 L 2.15625 -1.4375 L 2.871094 -1.871094 L 3.210938 -2.152344 L 3.949219 -2.628906 L 4.171875 -3.082031 L 4.085938 -3.503906 L 3.898438 -3.855469 L 3.605469 -4.214844 L 1.527344 -7.273438 L 1.4375 -7.742188 L 1.648438 -8.214844 L 3.675781 -9.617188 L 4.074219 -9.8125 L 4.386719 -10.023438 L 4.84375 -10.054688 L 5.238281 -9.84375 L 7.847656 -6.035156 L 8.226562 -5.886719 L 8.878906 -6.003906 L 9.78125 -6.613281 L 10.101562 -6.882812 L 10.847656 -7.3125 L 11.023438 -7.757812 L 11.03125 -8.195312 L 9.925781 -9.742188 L 9.605469 -10.332031 L 9.363281 -10.574219 L 3.492188 -19.265625 L 3.089844 -19.523438 L 2.648438 -19.425781 L 0.648438 -18.09375 L 0.230469 -17.632812 L 0.339844 -17.097656 L 0.765625 -16.429688 L 1 -16.160156 L 1.449219 -15.429688 L 1.722656 -15.132812 L 2.621094 -13.773438 L 2.664062 -13.300781 L 2.449219 -12.875 L 2.085938 -12.703125 L 1.457031 -12.175781 L 1.070312 -11.964844 L 0.785156 -11.71875 L -0.25 -11.042969 L -0.683594 -10.976562 L -1.078125 -11.1875 L -1.355469 -11.554688 L -1.601562 -11.917969 L -1.828125 -12.21875 L -2.726562 -13.578125 L -2.949219 -13.984375 L -3.417969 -14.597656 L -3.796875 -14.820312 L -4.289062 -14.765625 L -4.648438 -14.472656 L -6.382812 -13.347656 L -6.644531 -12.914062 L -6.582031 -12.453125 L -6.359375 -12.046875 L -5.410156 -10.722656 L -5.210938 -10.355469 L -4.660156 -9.691406 L -4.246094 -9.011719 L -3.949219 -8.609375 L -3.75 -8.238281 L -0.238281 -3.070312 L 0.0234375 -2.792969 Z M 0.933594 -1.339844 "/></g></g></g><g fill="#000000" fill-opacity="1"><g transform="translate(124.02035, 81.283897)"><g><path d="M 7.714844 -3.28125 L 9.320312 -4.234375 L 9.9375 -4.796875 L 11.273438 -6.335938 L 12.007812 -8.222656 L 12.097656 -8.679688 L 12.230469 -10.328125 L 12.195312 -10.75 L 12.074219 -11.15625 L 12.046875 -11.511719 L 11.929688 -11.964844 L 11.410156 -13.335938 L 10.707031 -14.597656 L 10.230469 -15.230469 L 9.894531 -15.558594 L 9.597656 -15.949219 L 8.964844 -16.417969 L 8.675781 -16.695312 L 8.277344 -16.90625 L 7.945312 -17.027344 L 7.539062 -17.253906 L 6.382812 -17.613281 L 5.132812 -17.773438 L 2.292969 -17.394531 L 1.390625 -17 L 0.101562 -16.308594 L -0.242188 -16.058594 L -0.570312 -15.769531 L -0.839844 -15.457031 L -1.472656 -14.933594 L -2.15625 -13.878906 L -2.316406 -13.527344 L -2.730469 -12.832031 L -2.980469 -12.023438 L -3.183594 -10.777344 L -3.203125 -10.375 L -3.082031 -9.167969 L -2.855469 -8.28125 L -1.910156 -6.046875 L -1.144531 -4.949219 L -0.5625 -4.4375 L -0.265625 -4.09375 L 0.0820312 -3.839844 L 1.539062 -3.039062 L 2.304688 -2.773438 L 2.683594 -2.605469 L 4.289062 -2.519531 L 4.71875 -2.535156 L 6.550781 -2.808594 Z M 5.636719 -6.371094 L 5.195312 -6.328125 L 4.835938 -6.207031 L 4.035156 -6.25 L 3.207031 -6.488281 L 2.894531 -6.664062 L 2.527344 -6.816406 L 1.671875 -7.710938 L 1.136719 -8.613281 L 0.894531 -9.191406 L 0.699219 -9.953125 L 0.65625 -10.347656 L 0.761719 -10.71875 L 0.78125 -11.121094 L 0.886719 -11.539062 L 1.058594 -11.917969 L 1.429688 -12.550781 L 1.691406 -12.878906 L 2.046875 -13.160156 L 2.882812 -13.640625 L 3.820312 -14.003906 L 5.027344 -14.035156 L 5.816406 -13.871094 L 6.550781 -13.429688 L 6.859375 -13.160156 L 7.152344 -12.832031 L 7.441406 -12.554688 L 7.894531 -11.773438 L 8.222656 -10.773438 L 8.410156 -9.917969 L 8.335938 -9.535156 L 8.296875 -9.171875 L 8.226562 -8.726562 L 7.851562 -8 L 7.582031 -7.6875 L 7.355469 -7.378906 L 7.03125 -7.179688 L 6.71875 -6.917969 Z M 5.636719 -6.371094 "/></g></g></g><g fill="#000000" fill-opacity="1"><g transform="translate(144.11963, 72.507593)"><g><path d="M 1.273438 -1.25 L 1.652344 -0.683594 L 2.308594 -0.589844 L 2.695312 -0.761719 L 3.355469 -0.882812 L 3.664062 -1.015625 L 4.269531 -1.1875 L 4.855469 -1.570312 L 4.871094 -2.203125 L 4.675781 -2.886719 L 4.613281 -3.261719 L 4.433594 -3.664062 L 4.109375 -4.964844 L 4.179688 -5.417969 L 4.496094 -5.746094 L 5.710938 -5.914062 L 6.207031 -5.6875 L 6.5625 -5.351562 L 6.828125 -5.035156 L 7.417969 -4.554688 L 8.007812 -3.9375 L 8.3125 -3.699219 L 8.585938 -3.339844 L 8.90625 -3.0625 L 9.449219 -2.824219 L 10.183594 -2.839844 L 11.765625 -3.308594 L 12.160156 -3.375 L 12.820312 -3.582031 L 13.148438 -3.871094 L 13.144531 -4.347656 L 12.796875 -4.730469 L 12.476562 -4.941406 L 12.207031 -5.277344 L 11.234375 -6.109375 L 10.953125 -6.421875 L 10.011719 -7.285156 L 9.6875 -7.519531 L 9.53125 -7.996094 L 9.585938 -8.488281 L 9.78125 -8.871094 L 9.996094 -9.191406 L 10.378906 -10.820312 L 10.3125 -12.058594 L 9.914062 -13.316406 L 9.738281 -13.699219 L 9.054688 -14.742188 L 8.796875 -15.039062 L 8.484375 -15.300781 L 6.996094 -16.179688 L 6.183594 -16.363281 L 5.347656 -16.410156 L 4.125 -16.347656 L 3.476562 -16.183594 L 2.90625 -15.980469 L 1.699219 -15.636719 L 1.273438 -15.605469 L 0.871094 -15.492188 L 0.539062 -15.289062 L 0.136719 -15.175781 L -0.289062 -15.140625 L -0.738281 -15.035156 L -1.894531 -14.601562 L -2.199219 -14.296875 L -2.28125 -13.664062 L -0.957031 -9.066406 L -0.804688 -8.675781 L -0.636719 -7.855469 L -0.492188 -7.417969 L -0.378906 -7.015625 L -0.230469 -6.644531 L -0.160156 -6.25 L 0.277344 -4.617188 L 0.433594 -4.226562 Z M 3.585938 -8.964844 L 3.121094 -9.070312 L 2.871094 -9.347656 L 2.53125 -10.554688 L 2.394531 -10.882812 L 2.195312 -11.738281 L 2.265625 -12.171875 L 2.644531 -12.453125 L 3.050781 -12.546875 L 3.832031 -12.855469 L 4.429688 -12.894531 L 4.964844 -13 L 5.375 -13.007812 L 6.054688 -12.527344 L 6.265625 -12.238281 L 6.492188 -11.738281 L 6.605469 -11.121094 L 6.535156 -10.664062 L 6.402344 -10.300781 L 6.230469 -10.058594 L 5.914062 -9.796875 L 5.371094 -9.488281 L 4.996094 -9.359375 L 4.019531 -9.128906 Z M 3.585938 -8.964844 "/></g></g></g><g fill="#000000" fill-opacity="1"><g transform="translate(163.283154, 67.56698)"><g><path d="M 7.214844 -0.910156 L 10.171875 -1.351562 L 10.578125 -1.597656 L 10.75 -2.0625 L 10.464844 -4.15625 L 10.183594 -4.539062 L 9.722656 -4.664062 L 9.25 -4.558594 L 8.851562 -4.570312 L 7.792969 -4.445312 L 7.117188 -4.273438 L 6.699219 -4.257812 L 6.246094 -4.175781 L 5.84375 -4.183594 L 5.394531 -4.082031 L 4.933594 -4.230469 L 4.714844 -4.578125 L 4.539062 -5.882812 L 4.667969 -6.34375 L 5.007812 -6.621094 L 5.628906 -6.726562 L 6.296875 -6.753906 L 7.082031 -6.902344 L 7.933594 -6.996094 L 8.339844 -7.09375 L 8.820312 -7.136719 L 9.210938 -7.359375 L 9.300781 -7.792969 L 9.109375 -9.664062 L 8.824219 -10.214844 L 8.3125 -10.421875 L 7.089844 -10.257812 L 6.660156 -10.15625 L 5.785156 -10.101562 L 4.589844 -9.898438 L 4.128906 -10.023438 L 3.875 -10.644531 L 3.789062 -11.285156 L 3.921875 -11.703125 L 4.355469 -11.933594 L 4.75 -11.964844 L 5.132812 -12.101562 L 8.101562 -12.457031 L 8.492188 -12.53125 L 8.894531 -12.839844 L 9.050781 -13.242188 L 8.972656 -13.652344 L 8.9375 -14.070312 L 8.726562 -15.304688 L 8.488281 -15.671875 L 8.050781 -15.785156 L 7.617188 -15.726562 L 7.234375 -15.757812 L 5.558594 -15.511719 L 5.109375 -15.40625 L 4.691406 -15.390625 L 4.339844 -15.324219 L 3.921875 -15.308594 L 2.226562 -15.039062 L 1.804688 -15.046875 L 1.421875 -14.910156 L 1.046875 -14.902344 L 0.636719 -14.804688 L 0.21875 -14.769531 L -0.191406 -14.542969 L -0.363281 -14.078125 L -0.214844 -13.296875 L -0.160156 -12.4375 L -0.0390625 -11.992188 L 0.195312 -9.957031 L 0.316406 -9.53125 L 0.328125 -9.132812 L 0.535156 -7.429688 L 0.648438 -7.066406 L 1.082031 -3.710938 L 1.09375 -3.308594 L 1.210938 -2.90625 L 1.339844 -1.46875 L 1.445312 -1.015625 L 1.683594 -0.480469 L 2.34375 -0.296875 L 3.835938 -0.476562 L 4.285156 -0.578125 L 4.660156 -0.609375 L 5.503906 -0.785156 L 5.90625 -0.753906 L 6.386719 -0.800781 L 6.792969 -0.898438 Z M 7.214844 -0.910156 "/></g></g></g><g fill="#000000" fill-opacity="1"><g transform="translate(180.417839, 65.520019)"><g><path d="M 6.433594 0.125 L 7.0625 0.132812 L 7.710938 0.0546875 L 8.128906 0.0585938 L 8.734375 -0.125 L 9.59375 -0.261719 L 10.578125 -0.667969 L 11.988281 -1.597656 L 13.027344 -2.902344 L 13.238281 -3.320312 L 13.492188 -3.648438 L 13.835938 -4.460938 L 13.941406 -4.859375 L 14.03125 -5.296875 L 14.160156 -5.648438 L 14.226562 -6.066406 L 14.230469 -6.507812 L 14.300781 -7.175781 L 14.285156 -7.78125 L 14.007812 -9.433594 L 13.746094 -10.230469 L 13.582031 -10.628906 L 12.882812 -11.742188 L 11.785156 -12.988281 L 10.726562 -13.707031 L 10.332031 -13.941406 L 9.917969 -14.027344 L 9.5625 -14.199219 L 9.125 -14.308594 L 7.894531 -14.507812 L 3.128906 -14.597656 L 2.753906 -14.539062 L 2.335938 -14.5625 L 1.875 -14.378906 L 1.683594 -13.941406 L 1.546875 -2.261719 L 1.585938 -1.863281 L 1.574219 -0.800781 L 1.777344 -0.148438 L 2.195312 0.0625 L 2.613281 0.0273438 L 5.160156 0.09375 L 5.578125 0.0351562 Z M 6.40625 -3.300781 L 6.007812 -3.347656 L 5.53125 -3.582031 L 5.367188 -3.980469 L 5.351562 -4.335938 L 5.378906 -5.191406 L 5.304688 -6.21875 L 5.398438 -7.261719 L 5.386719 -10.144531 L 5.429688 -10.5 L 5.644531 -10.976562 L 6.316406 -11.117188 L 7.191406 -11.128906 L 7.796875 -11.0625 L 8.609375 -10.824219 L 8.984375 -10.632812 L 9.296875 -10.398438 L 9.605469 -10.101562 L 9.917969 -9.722656 L 10.121094 -9.367188 L 10.304688 -8.988281 L 10.621094 -7.148438 L 10.398438 -5.6875 L 10.035156 -4.917969 L 9.253906 -4.046875 L 8.539062 -3.59375 L 7.933594 -3.414062 L 7.03125 -3.316406 Z M 6.40625 -3.300781 "/></g></g></g><g fill="#000000" fill-opacity="1"><g transform="translate(201.010875, 66.337468)"><g/></g></g><g fill="#000000" fill-opacity="1"><g transform="translate(212.126667, 67.986223)"><g><path d="M 6.792969 1.6875 L 7.617188 1.835938 L 8.03125 1.71875 L 8.324219 1.382812 L 8.800781 -0.632812 L 8.648438 -1.074219 L 8.253906 -1.40625 L 7.824219 -1.503906 L 7.375 -1.785156 L 7.242188 -2.308594 L 7.394531 -2.679688 L 7.898438 -4.921875 L 8.046875 -5.359375 L 8.308594 -6.84375 L 8.875 -8.878906 L 9.128906 -9.3125 L 9.617188 -9.390625 L 10.039062 -9.355469 L 10.503906 -9.417969 L 10.785156 -9.695312 L 11.277344 -11.703125 L 11.125 -12.148438 L 10.8125 -12.457031 L 8.351562 -13.039062 L 7.996094 -13.164062 L 7.570312 -13.179688 L 5.902344 -13.574219 L 5.53125 -13.722656 L 5.0625 -13.835938 L 4.605469 -13.726562 L 4.289062 -13.285156 L 3.996094 -11.765625 L 3.863281 -11.390625 L 3.992188 -10.929688 L 4.386719 -10.601562 L 4.792969 -10.507812 L 5.121094 -10.171875 L 5.175781 -9.578125 L 3.765625 -3.320312 L 3.398438 -2.761719 L 1.960938 -2.671875 L 1.652344 -2.359375 L 1.148438 -0.503906 L 1.222656 0.09375 L 1.585938 0.375 L 1.972656 0.464844 L 2.367188 0.515625 L 2.941406 0.734375 L 3.574219 0.863281 L 3.992188 0.917969 L 4.785156 1.191406 L 5.414062 1.253906 L 6.410156 1.488281 Z M 6.792969 1.6875 "/></g></g></g><g fill="#000000" fill-opacity="1"><g transform="translate(226.51825, 71.530288)"><g><path d="M 11.628906 4.109375 L 12.035156 4.621094 L 12.558594 4.890625 L 13.039062 4.921875 L 13.386719 4.605469 L 16.171875 -2.492188 L 16.238281 -2.847656 L 16.984375 -4.777344 L 17.222656 -5.222656 L 18.210938 -7.957031 L 18.167969 -8.421875 L 17.859375 -8.785156 L 15.433594 -9.699219 L 14.980469 -9.628906 L 14.609375 -9.300781 L 14.429688 -8.898438 L 14.371094 -8.5625 L 13.996094 -7.769531 L 13.867188 -7.324219 L 12.484375 -3.851562 L 12.238281 -3.5625 L 12 -3.8125 L 11.148438 -5.730469 L 10.769531 -6.371094 L 8.425781 -11.730469 L 8.222656 -12.078125 L 7.863281 -12.484375 L 7.332031 -12.847656 L 6.808594 -12.824219 L 6.492188 -12.523438 L 4.210938 -6.617188 L 4.0625 -6.292969 L 3.792969 -5.480469 L 3.609375 -5.167969 L 2.414062 -1.957031 L 2.230469 -1.601562 L 1.636719 0.0507812 L 1.671875 0.488281 L 2.027344 0.78125 L 2.8125 1.128906 L 3.253906 1.257812 L 3.992188 1.609375 L 4.410156 1.746094 L 4.875 1.703125 L 5.304688 1.171875 L 7.226562 -3.75 L 7.414062 -4.125 L 7.679688 -4.40625 L 7.894531 -4.210938 L 8.019531 -3.78125 L 8.894531 -1.921875 L 9.035156 -1.53125 L 9.28125 -1.1875 L 11.144531 2.980469 L 11.433594 3.742188 Z M 11.628906 4.109375 "/></g></g></g><g fill="#000000" fill-opacity="1"><g transform="translate(246.016879, 79.744817)"><g/></g></g><g fill="#000000" fill-opacity="1"><g transform="translate(255.78636, 84.995129)"><g><path d="M 5.839844 4.332031 L 6.644531 5.003906 L 7.902344 5.765625 L 9.050781 6.269531 L 9.480469 6.316406 L 9.921875 6.453125 L 10.308594 6.519531 L 11.566406 6.515625 L 12.382812 6.375 L 13.136719 6.140625 L 13.929688 5.777344 L 15.289062 4.796875 L 15.40625 4.414062 L 15.21875 3.953125 L 14.214844 3.34375 L 13.910156 3.054688 L 13.558594 2.828125 L 13.230469 2.570312 L 12.691406 2.496094 L 12.226562 2.578125 L 11.824219 2.78125 L 11.121094 2.949219 L 10.679688 2.992188 L 10.351562 2.914062 L 9.523438 2.816406 L 8.582031 2.230469 L 8.125 1.828125 L 7.667969 1.171875 L 7.285156 0.441406 L 7.105469 -0.351562 L 7.152344 -1.214844 L 7.273438 -1.640625 L 7.324219 -1.960938 L 7.457031 -2.328125 L 7.667969 -2.742188 L 8.40625 -3.78125 L 9.007812 -4.378906 L 9.699219 -4.8125 L 10.097656 -5.015625 L 10.84375 -5.207031 L 11.484375 -5.238281 L 12.125 -5.171875 L 13.375 -4.515625 L 14.085938 -3.960938 L 14.507812 -3.433594 L 14.730469 -3.097656 L 14.835938 -2.742188 L 14.980469 -1.898438 L 14.988281 -1.507812 L 15.082031 -0.957031 L 15.339844 -0.492188 L 15.671875 -0.308594 L 16.019531 -0.0390625 L 16.371094 0.1875 L 16.8125 0.574219 L 17.363281 0.886719 L 17.75 0.953125 L 18.109375 0.699219 L 18.273438 0.25 L 18.371094 -0.140625 L 18.519531 -0.570312 L 18.527344 -0.976562 L 18.566406 -1.359375 L 18.53125 -1.816406 L 18.574219 -2.273438 L 18.445312 -3.105469 L 17.804688 -4.660156 L 16.550781 -6.363281 L 16.238281 -6.609375 L 15.933594 -6.902344 L 14.890625 -7.667969 L 13.003906 -8.515625 L 11.320312 -8.808594 L 10.558594 -8.785156 L 9.355469 -8.636719 L 8.484375 -8.382812 L 7.8125 -8.117188 L 6.707031 -7.464844 L 6.042969 -6.882812 L 4.835938 -5.539062 L 4.058594 -4.21875 L 3.609375 -3.078125 L 3.292969 -1.074219 L 3.460938 0.171875 L 3.757812 1.378906 L 4.214844 2.289062 L 4.753906 3.15625 L 5.011719 3.441406 L 5.269531 3.800781 L 5.527344 4.085938 Z M 5.839844 4.332031 "/></g></g></g><g fill="#000000" fill-opacity="1"><g transform="translate(272.780387, 97.487486)"><g><path d="M 5.769531 6.082031 L 7.222656 7.253906 L 7.964844 7.636719 L 9.875 8.347656 L 11.898438 8.378906 L 12.355469 8.304688 L 13.949219 7.851562 L 14.332031 7.671875 L 14.671875 7.417969 L 14.996094 7.269531 L 15.378906 7 L 16.480469 6.035156 L 17.421875 4.933594 L 17.84375 4.265625 L 18.035156 3.835938 L 18.296875 3.421875 L 18.515625 2.667969 L 18.675781 2.296875 L 18.730469 1.851562 L 18.730469 1.5 L 18.800781 1.039062 L 18.734375 -0.171875 L 18.445312 -1.394531 L 17.101562 -3.929688 L 16.417969 -4.632812 L 15.316406 -5.601562 L 14.960938 -5.835938 L 14.578125 -6.042969 L 14.191406 -6.1875 L 13.480469 -6.597656 L 12.253906 -6.871094 L 11.867188 -6.898438 L 11.070312 -7.039062 L 10.226562 -6.992188 L 8.988281 -6.746094 L 8.605469 -6.625 L 7.515625 -6.089844 L 6.761719 -5.566406 L 5 -3.902344 L 4.238281 -2.804688 L 3.960938 -2.078125 L 3.742188 -1.675781 L 3.628906 -1.261719 L 3.386719 0.378906 L 3.40625 1.191406 L 3.378906 1.605469 L 3.859375 3.140625 L 4.023438 3.535156 L 4.921875 5.15625 Z M 7.9375 3.054688 L 7.742188 2.65625 L 7.503906 2.363281 L 7.265625 1.597656 L 7.199219 0.738281 L 7.257812 0.386719 L 7.269531 -0.015625 L 7.808594 -1.125 L 8.46875 -1.941406 L 8.925781 -2.371094 L 9.574219 -2.820312 L 9.925781 -3 L 10.308594 -3.03125 L 10.691406 -3.152344 L 11.121094 -3.199219 L 11.535156 -3.171875 L 12.261719 -3.042969 L 12.660156 -2.914062 L 13.046875 -2.679688 L 13.789062 -2.0625 L 14.457031 -1.3125 L 14.90625 -0.191406 L 15.03125 0.605469 L 14.871094 1.449219 L 14.726562 1.832031 L 14.523438 2.21875 L 14.363281 2.589844 L 13.789062 3.285156 L 12.964844 3.941406 L 12.230469 4.417969 L 11.847656 4.480469 L 11.492188 4.570312 L 11.050781 4.660156 L 10.238281 4.5625 L 9.851562 4.417969 L 9.480469 4.316406 L 9.183594 4.082031 L 8.828125 3.878906 Z M 7.9375 3.054688 "/></g></g></g><g fill="#000000" fill-opacity="1"><g transform="translate(288.03111, 113.226942)"><g><path d="M 3.742188 5.238281 L 4.109375 5.742188 L 4.558594 6.21875 L 4.804688 6.554688 L 5.316406 6.933594 L 5.9375 7.539062 L 6.855469 8.085938 L 8.4375 8.664062 L 10.105469 8.714844 L 10.566406 8.640625 L 10.984375 8.644531 L 11.839844 8.433594 L 12.222656 8.285156 L 12.625 8.09375 L 12.984375 7.988281 L 13.359375 7.789062 L 13.714844 7.53125 L 14.292969 7.1875 L 14.769531 6.816406 L 15.929688 5.605469 L 16.414062 4.917969 L 16.636719 4.550781 L 17.113281 3.324219 L 17.457031 1.703125 L 17.402344 0.421875 L 17.351562 -0.0351562 L 17.175781 -0.421875 L 17.101562 -0.804688 L 16.925781 -1.222656 L 16.351562 -2.328125 L 13.578125 -6.203125 L 13.308594 -6.46875 L 13.078125 -6.820312 L 12.65625 -7.082031 L 12.1875 -6.972656 L 2.738281 -0.109375 L 2.441406 0.160156 L 1.582031 0.785156 L 1.179688 1.335938 L 1.257812 1.796875 L 1.539062 2.109375 L 3.007812 4.195312 L 3.304688 4.496094 Z M 6.472656 3.167969 L 6.273438 2.820312 L 6.175781 2.296875 L 6.398438 1.929688 L 6.671875 1.703125 L 7.375 1.214844 L 8.15625 0.542969 L 9.046875 -0.00390625 L 11.355469 -1.734375 L 11.664062 -1.910156 L 12.175781 -2.027344 L 12.6875 -1.570312 L 13.222656 -0.875 L 13.527344 -0.347656 L 13.824219 0.445312 L 13.894531 0.859375 L 13.890625 1.25 L 13.839844 1.675781 L 13.722656 2.148438 L 13.558594 2.527344 L 13.363281 2.902344 L 12.074219 4.253906 L 10.769531 4.949219 L 9.9375 5.117188 L 8.773438 5.007812 L 7.980469 4.703125 L 7.472656 4.324219 L 6.859375 3.660156 Z M 6.472656 3.167969 "/></g></g></g><g fill="#000000" fill-opacity="1"><g transform="translate(299.681262, 130.049375)"><g><path d="M 3.339844 6.457031 L 4.773438 9.082031 L 5.144531 9.382812 L 5.640625 9.378906 L 7.507812 8.394531 L 7.769531 7.996094 L 7.730469 7.519531 L 7.46875 7.113281 L 7.339844 6.734375 L 6.859375 5.78125 L 6.464844 5.210938 L 6.304688 4.820312 L 6.070312 4.425781 L 5.941406 4.046875 L 5.691406 3.65625 L 5.667969 3.171875 L 5.925781 2.847656 L 7.089844 2.234375 L 7.5625 2.195312 L 7.941406 2.421875 L 8.253906 2.964844 L 8.511719 3.585938 L 8.917969 4.269531 L 9.300781 5.035156 L 9.53125 5.386719 L 9.738281 5.820312 L 10.082031 6.113281 L 10.519531 6.046875 L 12.210938 5.222656 L 12.632812 4.765625 L 12.648438 4.214844 L 12.070312 3.121094 L 11.828125 2.753906 L 11.476562 1.949219 L 10.871094 0.898438 L 10.832031 0.421875 L 11.328125 -0.0273438 L 11.902344 -0.332031 L 12.339844 -0.351562 L 12.703125 -0.0234375 L 12.867188 0.339844 L 13.128906 0.648438 L 14.488281 3.3125 L 14.691406 3.652344 L 15.117188 3.925781 L 15.546875 3.933594 L 15.90625 3.71875 L 16.285156 3.542969 L 17.375 2.921875 L 17.640625 2.570312 L 17.589844 2.121094 L 17.386719 1.734375 L 17.285156 1.359375 L 16.476562 -0.125 L 16.222656 -0.511719 L 16.066406 -0.902344 L 15.882812 -1.207031 L 15.722656 -1.59375 L 14.886719 -3.089844 L 14.746094 -3.488281 L 14.488281 -3.800781 L 14.347656 -4.152344 L 14.117188 -4.503906 L 13.9375 -4.882812 L 13.585938 -5.191406 L 13.089844 -5.191406 L 12.410156 -4.78125 L 11.621094 -4.4375 L 11.246094 -4.167969 L 9.414062 -3.25 L 9.054688 -2.988281 L 8.683594 -2.839844 L 7.160156 -2.058594 L 6.855469 -1.828125 L 3.855469 -0.265625 L 3.484375 -0.117188 L 3.144531 0.136719 L 1.839844 0.753906 L 1.453125 1.003906 L 1.03125 1.417969 L 1.085938 2.097656 L 1.769531 3.4375 L 2.019531 3.824219 L 2.175781 4.167969 L 2.632812 4.894531 L 2.746094 5.285156 L 2.949219 5.71875 L 3.183594 6.070312 Z M 3.339844 6.457031 "/></g></g></g><g fill="#000000" fill-opacity="1"><g transform="translate(67.236725, 210.749986)"><g><path d="M 22.34375 -2.78125 L 22.34375 -16.046875 C 22.34375 -18.296875 21.867188 -19.820312 20.921875 -20.625 C 20.523438 -20.925781 19.953125 -21.148438 19.203125 -21.296875 C 18.453125 -21.453125 17.648438 -21.578125 16.796875 -21.671875 C 16.097656 -21.773438 15.75 -22.148438 15.75 -22.796875 L 15.75 -28.65625 C 15.75 -28.90625 15.847656 -29.140625 16.046875 -29.359375 C 16.242188 -29.585938 16.492188 -29.703125 16.796875 -29.703125 C 17.648438 -29.796875 18.453125 -29.929688 19.203125 -30.109375 C 19.953125 -30.285156 20.523438 -30.523438 20.921875 -30.828125 C 21.867188 -31.578125 22.34375 -33.101562 22.34375 -35.40625 L 22.34375 -48.671875 C 22.34375 -50.171875 22.628906 -51.59375 23.203125 -52.9375 C 23.785156 -54.289062 24.5625 -55.457031 25.53125 -56.4375 C 26.507812 -57.414062 27.671875 -58.191406 29.015625 -58.765625 C 30.367188 -59.335938 31.796875 -59.625 33.296875 -59.625 L 35.46875 -59.625 C 36.175781 -59.625 36.53125 -59.273438 36.53125 -58.578125 L 36.53125 -54.96875 C 36.53125 -54.71875 36.425781 -54.476562 36.21875 -54.25 C 36.019531 -54.03125 35.769531 -53.921875 35.46875 -53.921875 L 33.296875 -53.921875 C 31.847656 -53.921875 30.609375 -53.40625 29.578125 -52.375 C 28.554688 -51.351562 28.046875 -50.117188 28.046875 -48.671875 L 28.046875 -35.40625 C 28.046875 -32.851562 27.394531 -30.726562 26.09375 -29.03125 C 25.59375 -28.320312 25.117188 -27.820312 24.671875 -27.53125 L 22.34375 -25.65625 L 24.671875 -23.84375 C 25.117188 -23.550781 25.59375 -23.050781 26.09375 -22.34375 C 27.394531 -20.75 28.046875 -18.648438 28.046875 -16.046875 L 28.046875 -2.78125 C 28.046875 -1.320312 28.554688 -0.0703125 29.578125 0.96875 C 30.609375 2.019531 31.847656 2.546875 33.296875 2.546875 L 35.46875 2.546875 C 36.175781 2.546875 36.53125 2.894531 36.53125 3.59375 L 36.53125 7.125 C 36.53125 7.820312 36.175781 8.171875 35.46875 8.171875 L 33.296875 8.171875 C 31.796875 8.171875 30.367188 7.882812 29.015625 7.3125 C 27.671875 6.738281 26.507812 5.960938 25.53125 4.984375 C 24.5625 4.015625 23.785156 2.851562 23.203125 1.5 C 22.628906 0.144531 22.34375 -1.28125 22.34375 -2.78125 Z M 22.34375 -2.78125 "/></g></g></g><g fill="#000000" fill-opacity="1"><g transform="translate(255.475902, 210.749986)"><g><path d="M 15.75 7.125 L 15.75 3.59375 C 15.75 2.894531 16.097656 2.546875 16.796875 2.546875 L 19.046875 2.546875 C 20.492188 2.546875 21.726562 2.019531 22.75 0.96875 C 23.78125 -0.0703125 24.296875 -1.320312 24.296875 -2.78125 L 24.296875 -16.046875 C 24.296875 -18.703125 24.921875 -20.828125 26.171875 -22.421875 C 26.421875 -22.671875 26.65625 -22.921875 26.875 -23.171875 C 27.101562 -23.421875 27.34375 -23.644531 27.59375 -23.84375 L 30 -25.65625 L 27.671875 -27.53125 C 27.117188 -27.925781 26.617188 -28.425781 26.171875 -29.03125 C 24.921875 -30.625 24.296875 -32.75 24.296875 -35.40625 L 24.296875 -48.671875 C 24.296875 -50.117188 23.78125 -51.351562 22.75 -52.375 C 21.726562 -53.40625 20.492188 -53.921875 19.046875 -53.921875 L 16.796875 -53.921875 C 16.492188 -53.921875 16.242188 -54.03125 16.046875 -54.25 C 15.847656 -54.476562 15.75 -54.71875 15.75 -54.96875 L 15.75 -58.578125 C 15.75 -59.273438 16.097656 -59.625 16.796875 -59.625 L 19.046875 -59.625 C 20.546875 -59.625 21.957031 -59.335938 23.28125 -58.765625 C 24.613281 -58.191406 25.765625 -57.414062 26.734375 -56.4375 C 27.710938 -55.457031 28.488281 -54.289062 29.0625 -52.9375 C 29.632812 -51.59375 29.921875 -50.171875 29.921875 -48.671875 L 29.921875 -35.40625 C 29.921875 -33.101562 30.421875 -31.578125 31.421875 -30.828125 C 31.773438 -30.523438 32.328125 -30.285156 33.078125 -30.109375 C 33.828125 -29.929688 34.625 -29.796875 35.46875 -29.703125 C 35.769531 -29.703125 36.019531 -29.585938 36.21875 -29.359375 C 36.425781 -29.140625 36.53125 -28.90625 36.53125 -28.65625 L 36.53125 -22.796875 C 36.53125 -22.148438 36.175781 -21.773438 35.46875 -21.671875 C 34.625 -21.578125 33.828125 -21.453125 33.078125 -21.296875 C 32.328125 -21.148438 31.773438 -20.925781 31.421875 -20.625 C 30.421875 -19.769531 29.921875 -18.242188 29.921875 -16.046875 L 29.921875 -2.78125 C 29.921875 -1.28125 29.632812 0.144531 29.0625 1.5 C 28.488281 2.851562 27.710938 4.015625 26.734375 4.984375 C 25.765625 5.960938 24.613281 6.738281 23.28125 7.3125 C 21.957031 7.882812 20.546875 8.171875 19.046875 8.171875 L 16.796875 8.171875 C 16.097656 8.171875 15.75 7.820312 15.75 7.125 Z M 15.75 7.125 "/></g></g></g></svg>